<?xml version="1.0" encoding="UTF-8" standalone="no"?>
<svg
   xmlns:sketch="http://www.bohemiancoding.com/sketch/ns"
   xmlns:dc="http://purl.org/dc/elements/1.1/"
   xmlns:cc="http://creativecommons.org/ns#"
   xmlns:rdf="http://www.w3.org/1999/02/22-rdf-syntax-ns#"
   xmlns:svg="http://www.w3.org/2000/svg"
   xmlns="http://www.w3.org/2000/svg"
   xmlns:xlink="http://www.w3.org/1999/xlink"
   xmlns:sodipodi="http://sodipodi.sourceforge.net/DTD/sodipodi-0.dtd"
   xmlns:inkscape="http://www.inkscape.org/namespaces/inkscape"
   width="145px"
   height="42px"
   viewBox="0 0 145 42"
   version="1.1"
   id="svg2"
   inkscape:version="0.91 r13725"
   sodipodi:docname="aurelia.svg">
  <metadata
     id="metadata182">
    <rdf:RDF>
      <cc:Work
         rdf:about="">
        <dc:format>image/svg+xml</dc:format>
        <dc:type
           rdf:resource="http://purl.org/dc/dcmitype/StillImage" />
      </cc:Work>
    </rdf:RDF>
  </metadata>
  <sodipodi:namedview
     pagecolor="#ffffff"
     bordercolor="#666666"
     borderopacity="1"
     objecttolerance="10"
     gridtolerance="10"
     guidetolerance="10"
     inkscape:pageopacity="0"
     inkscape:pageshadow="2"
     inkscape:window-width="1440"
     inkscape:window-height="805"
     id="namedview180"
     showgrid="false"
     inkscape:zoom="4.6698764"
     inkscape:cx="55.019028"
     inkscape:cy="12.264811"
     inkscape:window-x="0"
     inkscape:window-y="1"
     inkscape:window-maximized="1"
     inkscape:current-layer="Aurelia_Logo_Color_RGB" />
  <!-- Generator: Sketch 3.4.4 (17249) - http://www.bohemiancoding.com/sketch -->
  <title
     id="title4">logo</title>
  <desc
     id="desc6">Created with Sketch.</desc>
  <defs
     id="defs8">
    <filter
       x="-50%"
       y="-50%"
       width="200%"
       height="200%"
       filterUnits="objectBoundingBox"
       id="filter-1">
      <feOffset
         dx="0"
         dy="1"
         in="SourceAlpha"
         result="shadowOffsetOuter1"
         id="feOffset11" />
      <feGaussianBlur
         stdDeviation="0"
         in="shadowOffsetOuter1"
         result="shadowBlurOuter1"
         id="feGaussianBlur13" />
      <feColorMatrix
         values="0 0 0 0 0.935188138   0 0 0 0 0.935188138   0 0 0 0 0.935188138  0 0 0 0.7 0"
         in="shadowBlurOuter1"
         type="matrix"
         result="shadowMatrixOuter1"
         id="feColorMatrix15" />
      <feOffset
         dx="0"
         dy="2"
         in="SourceAlpha"
         result="shadowOffsetOuter2"
         id="feOffset17" />
      <feGaussianBlur
         stdDeviation="2"
         in="shadowOffsetOuter2"
         result="shadowBlurOuter2"
         id="feGaussianBlur19" />
      <feColorMatrix
         values="0 0 0 0 0   0 0 0 0 0   0 0 0 0 0  0 0 0 0.14 0"
         in="shadowBlurOuter2"
         type="matrix"
         result="shadowMatrixOuter2"
         id="feColorMatrix21" />
      <feMerge
         id="feMerge23">
        <feMergeNode
           in="shadowMatrixOuter1"
           id="feMergeNode25" />
        <feMergeNode
           in="shadowMatrixOuter2"
           id="feMergeNode27" />
        <feMergeNode
           in="SourceGraphic"
           id="feMergeNode29" />
      </feMerge>
    </filter>
    <linearGradient
       x1="-388.147851%"
       y1="-144.177425%"
       x2="237.683809%"
       y2="430.405754%"
       id="linearGradient-2">
      <stop
         stop-color="#C06FBB"
         offset="0%"
         id="stop32" />
      <stop
         stop-color="#6E4D9B"
         offset="100%"
         id="stop34" />
    </linearGradient>
    <linearGradient
       x1="72.9454854%"
       y1="84.4240777%"
       x2="-97.0517904%"
       y2="-147.696591%"
       id="linearGradient-3">
      <stop
         stop-color="#6E4D9B"
         offset="0%"
         id="stop37" />
      <stop
         stop-color="#77327A"
         offset="14%"
         id="stop39" />
      <stop
         stop-color="#B31777"
         offset="29%"
         id="stop41" />
      <stop
         stop-color="#CD0F7E"
         offset="84%"
         id="stop43" />
      <stop
         stop-color="#ED2C89"
         offset="100%"
         id="stop45" />
    </linearGradient>
    <linearGradient
       x1="-283.884079%"
       y1="-693.599872%"
       x2="287.537417%"
       y2="101.70976%"
       id="linearGradient-4">
      <stop
         stop-color="#C06FBB"
         offset="0%"
         id="stop48" />
      <stop
         stop-color="#6E4D9B"
         offset="100%"
         id="stop50" />
    </linearGradient>
    <linearGradient
       x1="-821.186214%"
       y1="-469.047862%"
       x2="101.985142%"
       y2="288.23598%"
       id="linearGradient-5">
      <stop
         stop-color="#C06FBB"
         offset="0%"
         id="stop53" />
      <stop
         stop-color="#6E4D9B"
         offset="100%"
         id="stop55" />
    </linearGradient>
    <linearGradient
       x1="-140.359373%"
       y1="-230.925718%"
       x2="419.012316%"
       y2="261.976742%"
       id="linearGradient-6">
      <stop
         stop-color="#C06FBB"
         offset="0%"
         id="stop58" />
      <stop
         stop-color="#6E4D9B"
         offset="100%"
         id="stop60" />
    </linearGradient>
    <linearGradient
       x1="191.083716%"
       y1="253.952517%"
       x2="20.3577022%"
       y2="20.4029283%"
       id="linearGradient-7">
      <stop
         stop-color="#6E4D9B"
         offset="0%"
         id="stop63" />
      <stop
         stop-color="#77327A"
         offset="14%"
         id="stop65" />
      <stop
         stop-color="#B31777"
         offset="29%"
         id="stop67" />
      <stop
         stop-color="#CD0F7E"
         offset="84%"
         id="stop69" />
      <stop
         stop-color="#ED2C89"
         offset="100%"
         id="stop71" />
    </linearGradient>
    <linearGradient
       x1="-388.094004%"
       y1="-173.850055%"
       x2="237.674802%"
       y2="518.990225%"
       id="linearGradient-8">
      <stop
         stop-color="#C06FBB"
         offset="0%"
         id="stop74" />
      <stop
         stop-color="#6E4D9B"
         offset="100%"
         id="stop76" />
    </linearGradient>
    <linearGradient
       x1="11.1884561%"
       y1="89.6525993%"
       x2="90.145125%"
       y2="11.5773982%"
       id="linearGradient-9">
      <stop
         stop-color="#6E4D9B"
         offset="0%"
         id="stop79" />
      <stop
         stop-color="#77327A"
         offset="14%"
         id="stop81" />
      <stop
         stop-color="#B31777"
         offset="53%"
         id="stop83" />
      <stop
         stop-color="#CD0F7E"
         offset="79%"
         id="stop85" />
      <stop
         stop-color="#ED2C89"
         offset="100%"
         id="stop87" />
    </linearGradient>
    <linearGradient
       inkscape:collect="always"
       xlink:href="#linearGradient-2"
       id="linearGradient3510"
       x1="-31.82433"
       y1="-11.74135"
       x2="19.682344"
       y2="35.547516"
       gradientTransform="scale(0.9581813,1.0436438)"
       gradientUnits="userSpaceOnUse" />
    <linearGradient
       inkscape:collect="always"
       xlink:href="#linearGradient-2"
       id="linearGradient3512"
       x1="-31.82433"
       y1="-11.74135"
       x2="19.682344"
       y2="35.547516"
       gradientTransform="scale(0.9581813,1.0436438)"
       gradientUnits="userSpaceOnUse" />
    <linearGradient
       inkscape:collect="always"
       xlink:href="#linearGradient-3"
       id="linearGradient3514"
       x1="12.021662"
       y1="13.921842"
       x2="-15.715923"
       y2="-23.952098"
       gradientTransform="scale(0.96226339,1.0392165)"
       gradientUnits="userSpaceOnUse" />
    <linearGradient
       inkscape:collect="always"
       xlink:href="#linearGradient-3"
       id="linearGradient3516"
       x1="12.021662"
       y1="13.921842"
       x2="-15.715923"
       y2="-23.952098"
       gradientTransform="scale(0.96226339,1.0392165)"
       gradientUnits="userSpaceOnUse" />
    <linearGradient
       inkscape:collect="always"
       xlink:href="#linearGradient-4"
       id="linearGradient3518"
       x1="-23.389809"
       y1="-57.288875"
       x2="23.931434"
       y2="8.5732578"
       gradientTransform="scale(1.0429298,0.95883734)"
       gradientUnits="userSpaceOnUse" />
    <linearGradient
       inkscape:collect="always"
       xlink:href="#linearGradient-4"
       id="linearGradient3520"
       x1="-23.389809"
       y1="-57.288875"
       x2="23.931434"
       y2="8.5732578"
       gradientTransform="scale(1.0429298,0.95883734)"
       gradientUnits="userSpaceOnUse" />
    <linearGradient
       inkscape:collect="always"
       xlink:href="#linearGradient-5"
       id="linearGradient3522"
       x1="-53.331331"
       y1="-30.517021"
       x2="6.7709587"
       y2="18.7853"
       gradientTransform="scale(0.99897855,1.0010225)"
       gradientUnits="userSpaceOnUse" />
    <linearGradient
       inkscape:collect="always"
       xlink:href="#linearGradient-5"
       id="linearGradient3524"
       x1="-53.331331"
       y1="-30.517021"
       x2="6.7709587"
       y2="18.7853"
       gradientTransform="scale(0.99897855,1.0010225)"
       gradientUnits="userSpaceOnUse" />
    <linearGradient
       inkscape:collect="always"
       xlink:href="#linearGradient-6"
       id="linearGradient3526"
       x1="-14.029167"
       y1="-23.110719"
       x2="41.998406"
       y2="26.259189"
       gradientTransform="scale(1.000348,0.99965211)"
       gradientUnits="userSpaceOnUse" />
    <linearGradient
       inkscape:collect="always"
       xlink:href="#linearGradient-6"
       id="linearGradient3528"
       x1="-14.029167"
       y1="-23.110719"
       x2="41.998406"
       y2="26.259189"
       gradientTransform="scale(1.000348,0.99965211)"
       gradientUnits="userSpaceOnUse" />
    <linearGradient
       inkscape:collect="always"
       xlink:href="#linearGradient-7"
       id="linearGradient3530"
       x1="31.177435"
       y1="41.441898"
       x2="3.3699644"
       y2="3.4018639"
       gradientTransform="scale(0.96253957,1.0389183)"
       gradientUnits="userSpaceOnUse" />
    <linearGradient
       inkscape:collect="always"
       xlink:href="#linearGradient-7"
       id="linearGradient3532"
       x1="31.177435"
       y1="41.441898"
       x2="3.3699644"
       y2="3.4018639"
       gradientTransform="scale(0.96253957,1.0389183)"
       gradientUnits="userSpaceOnUse" />
    <linearGradient
       inkscape:collect="always"
       xlink:href="#linearGradient-8"
       id="linearGradient3534"
       x1="-31.90483"
       y1="-14.257624"
       x2="19.599259"
       y2="42.766802"
       gradientTransform="scale(0.95822942,1.0435914)"
       gradientUnits="userSpaceOnUse" />
    <linearGradient
       inkscape:collect="always"
       xlink:href="#linearGradient-8"
       id="linearGradient3536"
       x1="-31.90483"
       y1="-14.257624"
       x2="19.599259"
       y2="42.766802"
       gradientTransform="scale(0.95822942,1.0435914)"
       gradientUnits="userSpaceOnUse" />
    <linearGradient
       inkscape:collect="always"
       xlink:href="#linearGradient-9"
       id="linearGradient3538"
       x1="4.3007736"
       y1="34.409849"
       x2="34.534087"
       y2="4.5140605"
       gradientTransform="scale(1.0020396,0.99796453)"
       gradientUnits="userSpaceOnUse" />
    <linearGradient
       inkscape:collect="always"
       xlink:href="#linearGradient-9"
       id="linearGradient3540"
       x1="4.3007736"
       y1="34.409849"
       x2="34.534087"
       y2="4.5140605"
       gradientTransform="scale(1.0020396,0.99796453)"
       gradientUnits="userSpaceOnUse" />
  </defs>
  <g
     id="Main-Navigation"
     stroke="none"
     stroke-width="1"
     fill="none"
     fill-rule="evenodd"
     sketch:type="MSPage">
    <g
       id="Main-Navigation---Home"
       sketch:type="MSArtboardGroup"
       transform="translate(-34.000000, -17.000000)">
      <g
         id="Main-Nav"
         sketch:type="MSLayerGroup">
        <g
           id="logo"
           transform="translate(29.845706,13.87981)"
           sketch:type="MSShapeGroup">
          <g
             id="Aurelia_Logo_Color_RGB">
            <g
               id="Full-Logo"
               transform="translate(0.13196,0.021427)">
              <g
                 id="Aurelia"
                 transform="translate(50.929505,11.290297)">
                <g
                   id="A"
                   transform="translate(0.076673,8.413465)"
                   style="fill:#ed2c88">
                  <path
                     d="m 8.7952475,16.540356 c 0.1156436,-4.75e-4 0.2328713,-0.0027 0.3485149,-0.0078 0.2455445,-0.01093 0.4895049,-0.03327 0.7334653,-0.06733 0.7081193,-0.09933 1.4019803,-0.297663 2.0562373,-0.588673 0.809505,-0.359921 1.555644,-0.860356 2.197228,-1.471525 0.605149,-0.577901 1.116832,-1.253861 1.508119,-1.994614 0.331089,-0.628277 0.575049,-1.302019 0.722376,-1.997148 0.17901,-0.8497426 0.213861,-1.7300595 0.104555,-2.5915248 C 16.364356,7.0327129 16.142574,6.2604356 15.805149,5.5396436 15.418614,4.7095446 14.881584,3.9502574 14.230495,3.3064555 13.544555,2.6292277 12.733465,2.0811089 11.847921,1.7001188 11.367921,1.4935445 10.865743,1.3360792 10.354059,1.2313663 9.8740594,1.1331485 9.3845545,1.0810297 8.8950495,1.0748515 8.4182178,1.0688317 7.9413861,1.105901 7.4724752,1.1866931 6.940198,1.2784158 6.4174257,1.4265346 5.9152475,1.6278812 5.0344554,1.9813069 4.2217822,2.4991683 3.5263366,3.1458218 2.8451485,3.7801188 2.279604,4.5368713 1.8645545,5.3706139 1.5128713,6.0807921 1.270495,6.8449901 1.150099,7.6289901 1.0170297,8.5040792 1.0328713,9.402297 1.2007921,10.271842 c 0.1362376,0.714138 0.3754455,1.408316 0.7065346,2.055604 0.3817822,0.745663 0.8855446,1.427801 1.4859406,2.013148 0.6209901,0.607683 1.3449505,1.109703 2.1338614,1.477545 0.6320792,0.295287 1.3053465,0.503762 1.9928713,0.617821 0.2407921,0.03992 0.4847525,0.06844 0.7287129,0.08539 0.1314851,0.0092 0.2629703,0.01457 0.3960396,0.01759 0.050693,7.92e-4 0.099802,0.0013 0.150495,0.0014 l 0,0 z m 8.0586135,-4.340752 c -0.08396,0.199287 -0.175841,0.395406 -0.274059,0.587881 -0.446733,0.873822 -1.042376,1.670495 -1.753663,2.347881 -0.698614,0.666456 -1.508119,1.216476 -2.385743,1.619644 -0.73505,0.337426 -1.51604,0.571564 -2.314455,0.693703 -0.2740598,0.04182 -0.5497034,0.07065 -0.8269311,0.08634 -0.129901,0.0074 -0.2613861,0.01157 -0.3912871,0.01362 -0.03802,4.75e-4 -0.07604,6.34e-4 -0.1124753,7.92e-4 -0.1314851,-4.75e-4 -0.2629703,-0.0029 -0.3944554,-0.0087 -0.2772277,-0.01236 -0.5528713,-0.0377 -0.8285149,-0.07604 C 6.7706931,17.352396 5.9849505,17.127762 5.2451485,16.798733 4.3469307,16.398891 3.5168317,15.84602 2.8007921,15.171485 2.0736634,14.486178 1.4653465,13.676832 1.0091089,12.787485 0.64158416,12.071287 0.37544555,11.304555 0.21861386,10.515168 0.03168317,9.5703762 0.00316832,8.5945347 0.12990099,7.6399208 0.24712871,6.7662574 0.49584158,5.9112871 0.86970297,5.1127129 1.3148515,4.1585743 1.9342574,3.287604 2.6883168,2.5519208 3.4661386,1.7907327 4.3881188,1.1767129 5.3908911,0.75231683 5.92,0.52863366 6.4712871,0.35770297 7.0336634,0.24269307 7.5944554,0.128 8.1663366,0.06875248 8.7382178,0.06526733 c 0.5734654,-0.0036436 1.1469307,0.04831683 1.7108912,0.15619802 0.56396,0.10819802 1.118416,0.27247524 1.650693,0.48982178 1.009109,0.41235647 1.937426,1.01560397 2.726337,1.76776237 0.749307,0.7139802 1.370297,1.5605545 1.82495,2.4901386 0.07129,0.1466931 0.139406,0.2952871 0.202772,0.4457822 l 0,-5.32055446 0.990099,0 0,17.42574216 -0.990099,0 0,-5.320554 0,0 z"
                     id="Shape"
                     inkscape:connector-curvature="0" />
                </g>
                <g
                   id="U"
                   transform="translate(20.353901,8.413465)"
                   style="fill:#cd0f7e">
                  <path
                     d="m 16.53703,12.818851 c -0.365941,0.704634 -0.825347,1.360159 -1.365545,1.942654 -0.46099,0.49901 -0.982178,0.944158 -1.546139,1.323089 -0.614653,0.412198 -1.283168,0.745347 -1.981782,0.987881 -0.579802,0.201188 -1.181782,0.339802 -1.7916828,0.413466 -0.2027723,0.02455 -0.4039604,0.04182 -0.6083168,0.05212 -0.1124753,0.0057 -0.2233664,0.0089 -0.3358416,0.01061 -0.03802,4.75e-4 -0.07604,6.34e-4 -0.1124753,7.92e-4 -0.1140594,-3.17e-4 -0.2249505,-0.0022 -0.3390099,-0.0065 -0.2407921,-0.009 -0.4815841,-0.02804 -0.7207921,-0.05687 C 7.0336634,17.401505 6.3429703,17.231842 5.6807921,16.981703 4.6891089,16.606574 3.7671287,16.050535 2.9718812,15.349228 2.4079208,14.850535 1.9057426,14.278812 1.4875247,13.65196 1.0344554,12.974574 0.6780198,12.23303 0.43564356,11.455366 0.25663366,10.88301 0.13940594,10.291802 0.08554455,9.6947327 0.05861386,9.3986535 0.04910891,9.1016238 0.05227723,8.8044356 l 0,-8.71001976 1.00910887,0 0,8.71572276 0,0.1043961 0,0.099485 c 0.00158,0.09901 0.00317,0.1978614 0.00951,0.2967129 0.011089,0.2273267 0.033267,0.4541782 0.06495,0.6796039 0.091881,0.6430105 0.2677228,1.2736635 0.5243564,1.8710495 0.359604,0.843406 0.8760396,1.617901 1.509703,2.280079 0.6257426,0.652515 1.3655445,1.194297 2.1750495,1.594773 0.7144554,0.352792 1.4827723,0.594851 2.270099,0.71493 0.8110891,0.123565 1.6427723,0.119287 2.452278,-0.01521 0.638416,-0.106297 1.264158,-0.294336 1.856633,-0.559049 0.847525,-0.378931 1.623763,-0.913743 2.282773,-1.568 0.627326,-0.623525 1.14693,-1.353663 1.533465,-2.150178 0.318416,-0.658377 0.543365,-1.361109 0.668515,-2.081584 0.04911,-0.27406 0.08238,-0.5504956 0.101386,-0.8278818 0.0079,-0.1327524 0.01426,-0.2655049 0.01743,-0.3985742 l 0,-0.047525 0.0095,-8.70875246 0.990099,0 0,17.42574246 -0.990099,0 0,-4.701307 0,0 z"
                     id="path100"
                     inkscape:connector-curvature="0" />
                </g>
                <g
                   id="R"
                   transform="translate(40.314297,8.413465)"
                   style="fill:#b31776">
                  <path
                     d="m 1.0645545,8.4155248 -0.022178,9.1046332 -0.99009897,0 0,-17.42574216 0.99009897,0 0,4.46083166 C 1.1659406,4.3296634 1.3005941,4.1097822 1.4431683,3.896396 1.8328713,3.3169109 2.2954455,2.7863762 2.8134654,2.3188911 3.5706931,1.6361188 4.4483168,1.0891089 5.3940594,0.70669307 6.0895049,0.42518812 6.8213861,0.23287129 7.5659406,0.13338614 7.8225743,0.09932673 8.0792079,0.0760396 8.3374257,0.06352475 8.4863366,0.05639604 8.6352475,0.05322772 8.7841584,0.05275248 l 0.00317,1.03366332 c -0.034851,1.585e-4 -0.068119,3.169e-4 -0.1013861,6.337e-4 -0.033267,4.752e-4 -0.066535,0.00111 -0.099802,0.0019 -0.1156435,0.00301 -0.2312871,0.00792 -0.3469307,0.015683 C 7.9952475,1.1207921 7.7528713,1.1478812 7.5120792,1.185901 6.8736634,1.2868119 6.2479208,1.4655049 5.6522772,1.718495 4.8269307,2.0700198 4.0617822,2.5650693 3.4059406,3.1781386 2.9465346,3.6071287 2.5409901,4.0934653 2.2035644,4.6232079 1.8566337,5.1667327 1.5809901,5.756198 1.3893069,6.371802 1.2530693,6.8096634 1.159604,7.2603564 1.1089109,7.7161188 c -0.026931,0.232396 -0.039604,0.4657426 -0.044356,0.699406 l 0,0 z"
                     id="path103"
                     inkscape:connector-curvature="0" />
                </g>
                <g
                   id="E"
                   transform="translate(48.393505,8.413465)"
                   style="fill:#9b2073">
                  <path
                     d="M 9.3750495,17.55105 8.8158416,17.54935 C 8.7794056,17.548875 8.7413856,17.548399 8.7033663,17.54795 8.5908911,17.545346 8.48,17.541386 8.3675247,17.535049 8.1283168,17.521426 7.8891089,17.49798 7.6514851,17.464713 6.9893069,17.37204 6.339802,17.203327 5.7172277,16.962376 4.6827723,16.562059 3.7291089,15.962614 2.9180198,15.207287 2.1211881,14.466376 1.4653465,13.577347 0.99326733,12.597545 0.64316832,11.870733 0.39445545,11.095446 0.25821782,10.300356 0.09346535,9.3508119 0.08871287,8.3738614 0.23920792,7.4224158 0.40079208,6.4148911 0.73980198,5.4377822 1.2372277,4.5473267 1.7837624,3.5687921 2.520396,2.6984555 3.3932673,1.9952475 3.8574257,1.6207525 4.3611881,1.2939406 4.8918812,1.0217822 5.3829703,0.77021782 5.8978218,0.56554455 6.4285148,0.41156436 7.1857426,0.19152475 7.9714852,0.07572277 8.760396,0.06574257 c 0.8807921,-0.0110891 1.763168,0.10962377 2.609109,0.36102971 0.948911,0.28261386 1.848713,0.72887132 2.650297,1.31295052 0.847525,0.6187723 1.582574,1.3899406 2.160792,2.2669307 0.378614,0.5756831 0.689109,1.1963564 0.92198,1.8450693 0.239208,0.6650297 0.39604,1.3592079 0.467327,2.0624158 0.02218,0.2219406 0.03644,0.4446733 0.04277,0.6677228 0,0.056396 0.0016,0.1126337 0.0016,0.1688713 0.0016,0.036594 0.0016,0.075089 -0.0016,0.1113663 -0.0032,0.018852 -0.0063,0.037545 -0.0095,0.056079 -0.01267,0.055287 -0.03485,0.1085149 -0.06495,0.1565149 -0.0602,0.096634 -0.153664,0.1709307 -0.261386,0.2086336 -0.03485,0.012515 -0.07287,0.021069 -0.109307,0.025347 -0.01901,0.00206 -0.03802,0.00206 -0.05703,0.00317 l -8.0285148,0 0,-1.0091089 7.5073268,0 C 16.571881,8.0286733 16.540198,7.7558812 16.492673,7.4853069 16.402376,6.9527129 16.253465,6.4296238 16.052277,5.9280792 15.762376,5.2053861 15.361584,4.528 14.868911,3.9244356 14.311287,3.2400792 13.636436,2.6518812 12.882376,2.1934257 12.264554,1.8184554 11.59604,1.5307723 10.897426,1.3419406 10.062574,1.1158812 9.189703,1.0328713 8.3263366,1.0932277 7.9065346,1.1225346 7.4883168,1.185901 7.079604,1.2831683 6.6328713,1.3891485 6.1972277,1.5352079 5.7758416,1.7189703 4.8934653,2.1048713 4.0855445,2.657901 3.4043564,3.3390891 3.0875248,3.6565545 2.7976238,4.0015842 2.5394059,4.3689505 2.2162376,4.8283564 1.9437624,5.3226139 1.7283168,5.8407921 1.5033663,6.3838416 1.340198,6.9528713 1.2435644,7.5331485 1.1659406,8.0033267 1.1326733,8.4806337 1.1405941,8.9573069 c 0.011089,0.5371881 0.07604,1.0732671 0.1964356,1.5968321 0.1394059,0.599445 0.350099,1.182099 0.6273267,1.731485 0.3009901,0.596119 0.679604,1.152633 1.1215842,1.65196 0.4118812,0.463208 0.8776238,0.87699 1.3861386,1.229782 0.410297,0.28404 0.8475248,0.528476 1.3037624,0.728238 0.48,0.209426 0.9790099,0.369742 1.490693,0.477782 0.3326733,0.07034 0.6716832,0.118495 1.0106931,0.144317 0.1821782,0.01378 0.3627723,0.02075 0.5449505,0.02249 l 0.5560396,0.0017 c 0,0.336316 -0.00158,0.672633 -0.00317,1.009109 l 0,0 z"
                     id="path106"
                     inkscape:connector-curvature="0" />
                </g>
                <g
                   id="L"
                   transform="translate(68.512317,0.017426)"
                   style="fill:#8f2475">
                  <path
                     d="M 5.150099,25.945505 C 4.9885148,25.94503 4.8269307,25.940119 4.6653465,25.929188 4.3247525,25.906218 3.9841584,25.857743 3.6514852,25.780277 3.3188119,25.702653 2.9908911,25.595723 2.6788119,25.456634 2.2922772,25.284911 1.9263366,25.064238 1.6015842,24.794772 1.430495,24.654891 1.2720792,24.50202 1.1263366,24.337584 0.94257426,24.131485 0.7809901,23.907485 0.64158416,23.669228 0.46732673,23.36998 0.33108911,23.049188 0.23445545,22.716832 0.16316832,22.469386 0.11247525,22.215762 0.0839604,21.959762 0.06019802,21.74701 0.04910891,21.53299 0.05227723,21.31897 l 0,-21.17829673 1.00910887,0 0,21.18463373 0,0.105188 c 0.00158,0.138614 0.00951,0.277228 0.025347,0.41505 0.025346,0.221782 0.069703,0.441504 0.1362376,0.654574 0.079208,0.25093 0.1869307,0.492673 0.3247525,0.717148 0.1045544,0.17204 0.2265346,0.333783 0.3627722,0.482535 0.1077228,0.118812 0.2249505,0.229386 0.3500991,0.330772 0.1045544,0.08554 0.2154455,0.164753 0.3295049,0.237466 0.098218,0.06257 0.199604,0.120396 0.3025743,0.173465 0.4926732,0.251564 1.0344554,0.395564 1.5825742,0.457663 0.2249505,0.0255 0.4514852,0.03659 0.6764357,0.03723 0,0.336317 -0.00158,0.672634 -0.00158,1.009109 l 0,0 z"
                     id="path109"
                     inkscape:connector-curvature="0" />
                </g>
                <g
                   id="I"
                   transform="translate(75.957861,0.017426)"
                   style="fill:#78327a">
                  <path
                     d="m 0.14891089,25.916198 0,-17.4257425 0.99009901,0 0,17.4257425 -0.99009901,0 0,0 z m 0.004752,-23.4455445 0,-2.32998023 0.98217821,0 0,2.32998023 -0.98217821,0 0,0 z"
                     id="path112"
                     inkscape:connector-curvature="0" />
                </g>
                <g
                   id="A1"
                   transform="translate(79.601426,8.413465)"
                   style="fill:#6e4d9b">
                  <path
                     d="m 8.7952475,16.540356 c 0.1156436,-4.75e-4 0.2328713,-0.0027 0.3485149,-0.0078 0.2455445,-0.01093 0.4895049,-0.03327 0.7334653,-0.06733 0.7081193,-0.09933 1.4019803,-0.297663 2.0562373,-0.588673 0.738218,-0.328554 1.424159,-0.773861 2.026139,-1.313901 0.668515,-0.60103 1.232475,-1.31802 1.65703,-2.110891 0.342178,-0.64 0.594059,-1.328158 0.744554,-2.038495 0.182178,-0.8657426 0.215446,-1.76301 0.09822,-2.6400001 C 16.354851,6.9855049 16.126733,6.2152871 15.786139,5.4971881 15.393267,4.6694653 14.851485,3.9138218 14.197228,3.2738218 13.506535,2.6005545 12.692277,2.0570297 11.805149,1.6817426 11.337822,1.484198 10.849901,1.3329109 10.354059,1.2313663 9.8566337,1.1298218 9.3512871,1.0775445 8.8443564,1.0743762 8.3374257,1.0712079 7.8289109,1.1169901 7.329901,1.2125148 6.8308911,1.308198 6.3413861,1.4534653 5.8724752,1.6454653 4.9790099,2.010297 4.1568317,2.5441584 3.459802,3.209505 2.7960396,3.8412673 2.2463366,4.5904158 1.8439604,5.4127525 1.4954455,6.1254653 1.2578218,6.8918812 1.1437624,7.6769901 c -0.1251485,0.8597228 -0.1077228,1.7411485 0.05703,2.5946929 0.1425742,0.74503 0.3960396,1.467881 0.7493069,2.138772 0.3912871,0.740753 0.9029703,1.416713 1.509703,1.994614 0.6178218,0.589466 1.3338614,1.076278 2.110099,1.432872 0.6495049,0.298297 1.340198,0.505346 2.0467327,0.613227 0.2423762,0.03707 0.4863366,0.06242 0.730297,0.07636 0.1156436,0.0067 0.2312871,0.0103 0.3469307,0.0122 0.034852,3.17e-4 0.066535,4.75e-4 0.1013861,6.33e-4 l 0,0 z m 8.0586135,-4.340752 c -0.08396,0.199287 -0.175841,0.395406 -0.274059,0.587881 -0.454653,0.889347 -1.064555,1.698693 -1.791683,2.384 -0.71604,0.674535 -1.544555,1.227406 -2.444357,1.627248 -0.739802,0.329029 -1.525544,0.553663 -2.327128,0.66598 -0.2740597,0.03834 -0.5512875,0.06368 -0.8285152,0.07604 -0.1314851,0.0059 -0.2629703,0.0082 -0.3928713,0.0087 -0.1314851,-4.75e-4 -0.2629703,-0.0029 -0.3944554,-0.0087 -0.2772277,-0.01236 -0.5528713,-0.0377 -0.8285149,-0.07604 C 6.7706931,17.352396 5.9849505,17.127762 5.2451485,16.798733 4.3310891,16.391762 3.4867327,15.826218 2.7627723,15.135366 2.0530693,14.45798 1.4574257,13.661307 1.0091089,12.787485 0.63366337,12.055129 0.36435644,11.269703 0.20910891,10.461624 0.03168317,9.5336238 0.00475248,8.5763168 0.12990099,7.6397624 0.24871287,6.7486733 0.50693069,5.8770693 0.89188119,5.0647129 1.3433663,4.1134257 1.9675247,3.2464158 2.7247525,2.5154852 3.5089109,1.7587327 4.4340594,1.150099 5.44,0.73172277 5.9881188,0.50423762 6.5584158,0.3329901 7.139802,0.22146535 7.6847525,0.11706931 8.2392079,0.06510891 8.7952475,0.06510891 c 0.5544555,0 1.1089109,0.0519604 1.6538615,0.15635644 0.581386,0.11152475 1.151683,0.28277227 1.699802,0.51025742 1.00594,0.41837623 1.931089,1.02700993 2.715247,1.78360393 0.744555,0.7185743 1.360792,1.5691089 1.810693,2.5015446 0.06337,0.1311683 0.121981,0.2639208 0.17901,0.398099 l 0,-5.32055446 0.990099,0 0,17.42574216 c -0.0016,0.01917 -0.990099,0 -0.990099,0 l 0,-5.320554 0,0 z"
                     id="path115"
                     inkscape:connector-curvature="0" />
                </g>
              </g>
              <g
                 id="Icon"
                 transform="matrix(0.9806698,0.19566997,-0.19566997,0.9806698,9.0147864,0.11704066)">
                <g
                   id="Group"
                   transform="matrix(0.9806698,-0.19566997,0.19566997,0.9806698,15.750274,1.9686705)"
                   style="fill:url(#linearGradient3512)">
                  <path
                     d="M 8.0015873,6.1268935 4.1172294,8.7193698 0.11564361,2.7225357 4.0000016,0.13005946 8.0015873,6.1268935 l 0,0 z"
                     id="path119"
                     style="fill:url(#linearGradient3510)"
                     inkscape:connector-curvature="0" />
                </g>
                <g
                   id="g121"
                   transform="matrix(0.9806698,-0.19566997,0.19566997,0.9806698,22.047324,23.406029)"
                   style="fill:url(#linearGradient3516)">
                  <path
                     d="M 9.1789343,1.8875255 15.815769,11.832876 7.9097061,17.108918 1.2728718,7.1634088 0.11500995,5.4285962 8.0212309,0.15255452 9.1789343,1.8875255 l 0,0 z"
                     id="path123"
                     style="fill:url(#linearGradient3514)"
                     inkscape:connector-curvature="0" />
                </g>
                <g
                   id="g125"
                   transform="matrix(0.9806698,-0.19566997,0.19566997,0.9806698,15.42617,31.511743)"
                   style="fill:url(#linearGradient3520)">
                  <path
                     d="M 7.3002801,1.8791295 8.7615084,4.0687541 2.7437635,8.0845973 0.12467332,4.1600016 1.4393669,3.2826944 6.1425767,0.14415847 7.3002801,1.8791295 l 0,0 z"
                     id="path127"
                     style="fill:url(#linearGradient3518)"
                     inkscape:connector-curvature="0" />
                </g>
                <g
                   id="g129"
                   transform="matrix(0.9806698,-0.19566997,0.19566997,0.9806698,31.215029,17.538363)"
                   style="fill:url(#linearGradient3524)">
                  <path
                     d="M 2.3280801,1.1462975 4.0160016,0.0199604 6.6349333,3.944556 2.7501001,6.5370323 1.2888718,4.3474077 3.4857836,2.8812685 2.3280801,1.1462975 l 0,0 z M 1.2888718,4.3474077 0.13116837,2.6124367 2.3280801,1.1462975 l 1.1577035,1.734971 -2.1969118,1.4661392 0,0 z"
                     id="path131"
                     style="fill:url(#linearGradient3522)"
                     inkscape:connector-curvature="0" />
                </g>
                <g
                   id="g133"
                   transform="matrix(0.9806698,-0.19566997,0.19566997,0.9806698,0.0856044,16.157212)"
                   style="fill:url(#linearGradient3528)">
                  <path
                     d="M 5.3459031,9.1545383 4.0313679,10.031846 0.02946536,4.0350115 6.0472103,0.01916832 8.8522808,4.2227343 4.1492294,7.3612703 8.8522808,4.2227343 10.049113,6.0161608 5.3459031,9.1545383 l 0,0 z"
                     id="path135"
                     style="fill:url(#linearGradient3526)"
                     inkscape:connector-curvature="0" />
                </g>
                <g
                   id="g137"
                   transform="matrix(0.9806698,-0.19566997,0.19566997,0.9806698,1.8623698,3.2026981)"
                   style="fill:url(#linearGradient3532)">
                  <path
                     d="M 14.533075,9.9339446 15.729749,11.727371 7.8235279,17.003413 6.6268541,15.209986 0.05211883,5.3577843 7.9583398,0.08174261 14.533075,9.9339446 l 0,0 z"
                     id="path139"
                     style="fill:url(#linearGradient3530)"
                     inkscape:connector-curvature="0" />
                </g>
                <g
                   id="g141"
                   transform="matrix(0.9806698,-0.19566997,0.19566997,0.9806698,15.843466,2.0284784)"
                   style="fill:url(#linearGradient3536)">
                  <path
                     d="M 6.2346163,7.1767157 4.0377046,8.6426965 2.8408724,6.8494285 0.03580199,2.6458624 3.9206352,0.05338616 7.9225378,6.0502202 6.2346163,7.1767157 l 0,0 z"
                     id="path143"
                     style="fill:url(#linearGradient3534)"
                     inkscape:connector-curvature="0" />
                </g>
                <g
                   id="g145"
                   transform="matrix(0.9806698,-0.19566997,0.19566997,0.9806698,16.824352,31.232768)"
                   style="fill:#714896">
                  <path
                     d="M 1.1714856,5.0176654 0.01362377,3.2826944 4.7168336,0.14415847 5.874537,1.8791295 1.1714856,5.0176654 l 0,0 z"
                     id="path147"
                     inkscape:connector-curvature="0" />
                </g>
                <g
                   id="g149"
                   transform="matrix(0.9806698,-0.19566997,0.19566997,0.9806698,31.43201,18.625839)"
                   style="fill:#6f4795">
                  <path
                     d="M 1.2888718,3.2384963 0.13116837,1.5035254 2.3280801,0.03738615 3.4857836,1.7723571 1.2888718,3.2384963 l 0,0 z"
                     id="path151"
                     inkscape:connector-curvature="0" />
                </g>
                <g
                   id="g153"
                   transform="matrix(0.9806698,-0.19566997,0.19566997,0.9806698,4.9307283,19.39048)"
                   style="fill:#88519f">
                  <path
                     d="M 1.2270896,5.0357248 0.03041585,3.2424567 4.7334672,0.10392083 5.9302994,1.8973473 1.2270896,5.0357248 l 0,0 z"
                     id="path155"
                     inkscape:connector-curvature="0" />
                </g>
                <g
                   id="g157"
                   transform="matrix(0.9806698,-0.19566997,0.19566997,0.9806698,19.507389,6.6281973)"
                   style="fill:#85509e">
                  <path
                     d="M 1.3446342,3.4149717 0.14780204,1.6217036 2.3448722,0.15556442 3.541546,1.9489909 1.3446342,3.4149717 l 0,0 z"
                     id="path159"
                     inkscape:connector-curvature="0" />
                </g>
                <g
                   id="g161"
                   transform="matrix(0.9806698,-0.19566997,0.19566997,0.9806698,22.047324,23.406029)"
                   style="fill:#8d166a">
                  <path
                     d="M 9.1789343,1.8875255 1.2728718,7.1634088 0.11500995,5.4285962 8.0212309,0.15255452 9.1789343,1.8875255 l 0,0 z"
                     id="path163"
                     inkscape:connector-curvature="0" />
                </g>
                <g
                   id="g165"
                   transform="matrix(0.9806698,-0.19566997,0.19566997,0.9806698,10.1537,11.56374)"
                   style="fill:#a70d6f">
                  <path
                     d="M 8.038023,0.11215846 9.2346967,1.9055849 1.3284758,7.1816266 0.13180203,5.3882002 8.038023,0.11215846 l 0,0 z"
                     id="path167"
                     inkscape:connector-curvature="0" />
                </g>
                <g
                   id="g169"
                   transform="matrix(0.70710678,0.70710678,-0.70710678,0.70710678,2.3746837,11.768995)"
                   style="fill:#9e61ad">
                  <rect
                     id="Rectangle-path"
                     x="2.1353641e-15"
                     y="0"
                     width="2.6884103"
                     height="2.6884103" />
                </g>
                <g
                   id="g172"
                   transform="matrix(0.70710678,0.70710678,-0.70710678,0.70710678,15.523201,36.48187)"
                   style="fill:#8053a3">
                  <rect
                     id="rect174"
                     x="2.1353641e-15"
                     y="0"
                     width="2.6884103"
                     height="2.6884103" />
                </g>
                <g
                   id="g176"
                   transform="translate(1.822504,1.547653)"
                   style="fill:url(#linearGradient3540)">
                  <path
                     d="M 8.3722789,38.293869 0.01663367,29.87565 29.748917,0.0807921 38.38575,8.2819818 8.3722789,38.293869 l 0,0 z"
                     id="path178"
                     style="fill:url(#linearGradient3538)"
                     inkscape:connector-curvature="0" />
                </g>
              </g>
            </g>
          </g>
        </g>
      </g>
    </g>
  </g>
</svg>
