<?xml version="1.0" encoding="UTF-8" standalone="no"?>
<!-- Created with Inkscape (http://www.inkscape.org/) -->

<svg
   xmlns:dc="http://purl.org/dc/elements/1.1/"
   xmlns:cc="http://creativecommons.org/ns#"
   xmlns:rdf="http://www.w3.org/1999/02/22-rdf-syntax-ns#"
   xmlns:svg="http://www.w3.org/2000/svg"
   xmlns="http://www.w3.org/2000/svg"
   xmlns:sodipodi="http://sodipodi.sourceforge.net/DTD/sodipodi-0.dtd"
   xmlns:inkscape="http://www.inkscape.org/namespaces/inkscape"
   width="121.66148mm"
   height="72.900467mm"
   viewBox="0 0 431.084 258.30874"
   id="svg2"
   version="1.1"
   inkscape:version="0.91 r13725"
   sodipodi:docname="cesar.svg">
  <defs
     id="defs4" />
  <sodipodi:namedview
     id="base"
     pagecolor="#ffffff"
     bordercolor="#666666"
     borderopacity="1.0"
     inkscape:pageopacity="0.0"
     inkscape:pageshadow="2"
     inkscape:zoom="1.5051608"
     inkscape:cx="172.77889"
     inkscape:cy="121.37151"
     inkscape:document-units="px"
     inkscape:current-layer="layer1"
     showgrid="false"
     fit-margin-top="0"
     fit-margin-left="0"
     fit-margin-right="0"
     fit-margin-bottom="0"
     inkscape:window-width="1440"
     inkscape:window-height="805"
     inkscape:window-x="0"
     inkscape:window-y="1"
     inkscape:window-maximized="1" />
  <metadata
     id="metadata7">
    <rdf:RDF>
      <cc:Work
         rdf:about="">
        <dc:format>image/svg+xml</dc:format>
        <dc:type
           rdf:resource="http://purl.org/dc/dcmitype/StillImage" />
        <dc:title />
      </cc:Work>
    </rdf:RDF>
  </metadata>
  <g
     inkscape:label="Camada 1"
     inkscape:groupmode="layer"
     id="layer1"
     transform="translate(0,-794.05345)">
    <g
       id="g20"
       transform="matrix(1.25,0,0,-1.25,424.49776,1021.7347)"
       style="fill:#ffffff;fill-opacity:1">
      <path
         d="M 0,0 C -0.094,-1.937 -0.863,-3.185 -2.332,-3.756 -3.764,-4.408 -5.02,-4.7 -6.072,-4.653 l -4.559,0 c -1.006,0 -1.515,0.512 -1.515,1.539 l 0,1.691 c 0,1.714 0.533,3.195 1.586,4.455 1.054,1.271 2.558,1.924 4.488,1.97 1.705,0 3.136,-0.396 4.285,-1.2 C -0.639,2.974 -0.047,1.702 0,0 m 5.269,-15.627 c 0,2.134 -0.308,3.849 -0.935,5.119 -0.651,1.213 -1.397,2.112 -2.262,2.706 -0.568,0.513 -0.568,1.002 0,1.47 0.557,0.338 1.22,0.99 1.977,1.971 0.769,0.979 1.173,2.424 1.22,4.349 C 5.222,3.148 4.168,5.598 2.12,7.323 -0.059,9.061 -2.781,9.924 -6.072,9.924 -9.447,9.877 -12.182,8.746 -14.253,6.542 -16.36,4.35 -17.414,1.69 -17.414,-1.435 l 0,-20.174 c 0,-1.003 0.497,-1.505 1.503,-1.505 l 2.262,0 c 1.005,0 1.503,0.502 1.503,1.505 l 0,10.821 c 0,1.038 0.509,1.552 1.515,1.552 l 4.559,0 c 1.928,-0.047 3.432,-0.701 4.486,-1.96 C -0.532,-12.455 0,-13.937 0,-15.627 l 0,-5.982 c 0,-1.003 0.498,-1.505 1.504,-1.505 l 2.262,0 c 1.005,0 1.503,0.502 1.503,1.505 l 0,5.982 z m -86.138,12.513 c 0,-1.027 -0.509,-1.539 -1.515,-1.539 l -9.116,0 c -1.007,0 -1.516,0.512 -1.516,1.539 l 0,1.691 c 0,1.714 0.534,3.195 1.587,4.455 1.054,1.271 2.557,1.924 4.487,1.97 1.929,-0.046 3.433,-0.699 4.487,-1.97 1.054,-1.26 1.586,-2.741 1.586,-4.455 l 0,-1.691 z m 5.268,1.679 c -0.046,3.125 -1.077,5.785 -3.089,7.977 -2.013,2.204 -4.76,3.335 -8.252,3.382 -3.374,-0.047 -6.109,-1.178 -8.181,-3.382 -2.107,-2.192 -3.161,-4.852 -3.161,-7.977 l 0,-20.174 c 0,-1.003 0.498,-1.505 1.505,-1.505 l 2.26,0 c 1.006,0 1.503,0.502 1.503,1.505 l 0,10.821 c 0,1.038 0.509,1.552 1.516,1.552 l 9.116,0 c 1.006,0 1.515,-0.514 1.515,-1.552 l 0,-10.821 c 0,-1.003 0.498,-1.505 1.504,-1.505 l 2.261,0 c 1.006,0 1.503,0.502 1.503,1.505 l 0,20.174 z m -80.869,-11.883 c -0.048,3.265 -1.161,5.679 -3.362,7.242 -2.167,1.527 -4.83,2.344 -7.991,2.437 -0.131,-0.047 -1.054,0.187 -2.747,0.711 -0.746,0.281 -1.361,0.724 -1.847,1.342 -0.615,0.548 -0.912,1.317 -0.912,2.297 0,0.897 0.391,1.831 1.173,2.822 0.793,0.98 2.237,1.493 4.344,1.539 1.706,0 3.232,-0.652 4.606,-1.947 0.698,-0.618 1.408,-0.688 2.154,-0.21 l 1.646,1.201 c 0.804,0.583 0.876,1.272 0.201,2.053 -0.923,1.06 -2.06,1.959 -3.433,2.705 -1.432,0.653 -3.149,1.003 -5.174,1.05 -3.492,-0.047 -6.12,-1.027 -7.896,-2.939 -1.788,-1.878 -2.688,-3.989 -2.688,-6.333 0.096,-5.539 3.624,-8.618 10.597,-9.236 0.142,0.047 1.148,-0.14 3.03,-0.548 0.793,-0.257 1.503,-0.722 2.155,-1.399 0.58,-0.711 0.876,-1.645 0.876,-2.811 0,-1.364 -0.462,-2.612 -1.373,-3.731 -0.924,-1.166 -2.487,-1.761 -4.688,-1.808 -1.563,0 -2.949,0.467 -4.132,1.4 -1.149,0.885 -2.108,1.842 -2.901,2.869 -0.485,0.746 -1.148,0.885 -1.977,0.408 l -1.587,-1.132 c -0.792,-0.63 -0.935,-1.352 -0.437,-2.145 0.828,-1.412 2.143,-2.788 3.93,-4.118 1.788,-1.375 4.155,-2.11 7.091,-2.203 3.623,0.046 6.416,1.073 8.382,3.067 1.977,1.959 2.96,4.431 2.96,7.417 m -85.427,9.505 c 0,-1.027 -0.509,-1.541 -1.516,-1.541 l -9.115,0 c -1.007,0 -1.516,0.514 -1.516,1.541 l 0,1.69 c 0,1.714 0.533,3.195 1.586,4.455 1.054,1.271 2.558,1.924 4.487,1.971 1.93,-0.047 3.433,-0.7 4.487,-1.971 1.054,-1.26 1.587,-2.741 1.587,-4.455 l 0,-1.69 z m 5.268,1.69 c -0.047,3.125 -1.078,5.772 -3.09,7.965 -2.012,2.204 -4.759,3.336 -8.252,3.382 -3.374,-0.046 -6.108,-1.178 -8.18,-3.382 -2.108,-2.193 -3.161,-4.84 -3.161,-7.965 l 0,-11.066 c 0,-3.08 1.053,-5.704 3.161,-7.896 2.072,-2.228 4.806,-3.37 8.18,-3.417 2.889,0.047 5.221,0.712 7.021,2.006 0.911,0.653 1.669,1.318 2.272,1.994 0.581,0.7 1.09,1.388 1.516,2.041 0.225,0.326 0.344,0.688 0.344,1.096 -0.048,0.385 -0.285,0.747 -0.711,1.061 l -1.515,1.132 c -0.32,0.268 -0.651,0.384 -1.006,0.338 -0.427,-0.047 -0.782,-0.257 -1.042,-0.618 -0.568,-0.84 -1.397,-1.726 -2.498,-2.659 -1.137,-0.933 -2.605,-1.423 -4.404,-1.469 -1.93,0.046 -3.422,0.723 -4.476,2.028 -1.053,1.283 -1.574,2.74 -1.574,4.374 l 0,1.691 c 0,1.038 0.509,1.55 1.516,1.55 l 12.868,0 c 1.977,0 2.984,1.027 3.031,3.068 l 0,4.746 z m -81.343,-15.486 c 0.462,0.793 0.249,1.492 -0.639,2.075 l -1.575,1.132 c -0.746,0.524 -1.42,0.338 -2.048,-0.549 -0.13,-0.245 -0.344,-0.583 -0.639,-0.991 -0.273,-0.432 -0.64,-0.874 -1.113,-1.329 -0.911,-1.027 -2.297,-1.563 -4.156,-1.61 -1.929,0.047 -3.421,0.723 -4.499,2.018 -1.053,1.283 -1.574,2.74 -1.574,4.361 l 0,11.126 c 0,1.69 0.521,3.172 1.574,4.431 1.078,1.248 2.57,1.901 4.499,1.947 0.959,0 1.8,-0.128 2.522,-0.408 0.687,-0.362 1.255,-0.77 1.705,-1.201 0.474,-0.408 0.841,-0.851 1.113,-1.33 0.284,-0.407 0.473,-0.781 0.568,-1.13 0.58,-0.77 1.266,-0.887 2.048,-0.339 l 1.646,1.19 c 0.426,0.326 0.663,0.699 0.71,1.131 0,0.361 -0.095,0.688 -0.273,0.956 -0.248,0.793 -1.124,1.971 -2.627,3.558 -0.734,0.687 -1.717,1.294 -2.949,1.783 -1.254,0.478 -2.734,0.712 -4.463,0.712 -3.397,-0.047 -6.132,-1.178 -8.18,-3.382 -2.108,-2.192 -3.161,-4.84 -3.161,-7.965 l 0,-11.067 c 0,-3.078 1.053,-5.702 3.149,-7.896 2.06,-2.226 4.783,-3.37 8.18,-3.416 1.681,0.046 3.15,0.315 4.404,0.817 1.232,0.477 2.238,1.048 3.02,1.737 0.828,0.699 1.467,1.399 1.917,2.099 0.403,0.641 0.687,1.155 0.841,1.54"
         style="fill:#ffffff;fill-opacity:1;fill-rule:evenodd;stroke:none"
         id="path22"
         inkscape:connector-curvature="0" />
    </g>
    <g
       id="g24"
       transform="matrix(1.25,0,0,-1.25,170.59875,794.05345)"
       style="fill:#ffffff;fill-opacity:1">
      <path
         d="m 0,0 c -77.808,-6.708 -136.479,-34.76 -136.479,-68.178 0,-38.393 77.425,-69.706 172.355,-69.706 94.931,0 172.355,31.313 172.355,69.706 0,33.417 -58.669,61.47 -136.477,68.178 l 0,-3.215 c 40.279,-4.827 69.167,-23.034 69.167,-37.886 0,-18.983 -47.189,-34.465 -105.045,-34.465 -57.856,0 -105.044,15.482 -105.044,34.465 0,14.852 28.888,32.213 69.168,37.041 L 0,0 Z"
         style="fill:#ffffff;fill-opacity:1;fill-rule:evenodd;stroke:none"
         id="path26"
         inkscape:connector-curvature="0" />
    </g>
    <g
       id="g28"
       transform="matrix(1.25,0,0,-1.25,196.55399,804.36833)"
       style="fill:#ffffff;fill-opacity:1">
      <path
         d="m 0,0 c -32.245,-2.472 -56.559,-12.812 -56.559,-25.129 0,-14.15 32.086,-25.692 71.427,-25.692 39.341,0 71.427,11.542 71.427,25.692 0,12.317 -24.313,22.657 -56.558,25.129 l 0,-3.211 c 16.692,-1.779 28.664,-6.464 28.664,-11.938 0,-6.997 -19.556,-12.703 -43.533,-12.703 -23.977,0 -43.533,5.706 -43.533,12.703 0,5.474 11.972,10.159 28.665,11.938 L 0,0 Z"
         style="fill:#ffffff;fill-opacity:1;fill-rule:evenodd;stroke:none"
         id="path30"
         inkscape:connector-curvature="0" />
    </g>
    <g
       id="g32"
       transform="matrix(1.25,0,0,-1.25,66.59362,1048.9625)"
       style="fill:#ffffff;fill-opacity:1">
      <path
         d="m 0,0 c 0,0.665 -0.318,1.013 -0.954,1.036 l -1.436,0 C -3.025,1.013 -3.343,0.665 -3.343,0 l 0,-0.982 c 0,-0.654 0.318,-0.995 0.953,-1.018 l 1.436,0 C -0.318,-1.977 0,-1.636 0,-0.982 L 0,0 Z"
         style="fill:#ffffff;fill-opacity:1;fill-rule:evenodd;stroke:none"
         id="path34"
         inkscape:connector-curvature="0" />
    </g>
    <g
       id="g36"
       transform="matrix(1.25,0,0,-1.25,167.45612,1048.9125)"
       style="fill:#ffffff;fill-opacity:1">
      <path
         d="m 0,0 c 0,0.665 -0.318,1.013 -0.954,1.036 l -1.436,0 C -3.025,1.013 -3.343,0.665 -3.343,0 l 0,-0.982 c 0,-0.654 0.318,-0.996 0.953,-1.019 l 1.436,0 C -0.318,-1.978 0,-1.636 0,-0.982 L 0,0 Z"
         style="fill:#ffffff;fill-opacity:1;fill-rule:evenodd;stroke:none"
         id="path38"
         inkscape:connector-curvature="0" />
    </g>
    <g
       id="g40"
       transform="matrix(1.25,0,0,-1.25,267.57637,1049.0186)"
       style="fill:#ffffff;fill-opacity:1">
      <path
         d="m 0,0 c 0,0.665 -0.317,1.012 -0.953,1.036 l -1.436,0 C -3.024,1.012 -3.343,0.665 -3.343,0 l 0,-0.982 c 0,-0.655 0.319,-0.996 0.954,-1.019 l 1.436,0 C -0.317,-1.978 0,-1.637 0,-0.982 L 0,0 Z"
         style="fill:#ffffff;fill-opacity:1;fill-rule:evenodd;stroke:none"
         id="path42"
         inkscape:connector-curvature="0" />
    </g>
    <g
       id="g44"
       transform="matrix(1.25,0,0,-1.25,367.79362,1048.9345)"
       style="fill:#ffffff;fill-opacity:1">
      <path
         d="m 0,0 c 0,0.665 -0.318,1.013 -0.953,1.035 l -1.437,0 C -3.024,1.013 -3.343,0.665 -3.343,0 l 0,-0.983 c 0,-0.653 0.319,-0.995 0.953,-1.018 l 1.437,0 C -0.318,-1.978 0,-1.636 0,-0.983 L 0,0 Z"
         style="fill:#ffffff;fill-opacity:1;fill-rule:evenodd;stroke:none"
         id="path46"
         inkscape:connector-curvature="0" />
    </g>
  </g>
</svg>
