<?xml version="1.0" encoding="UTF-8" standalone="no"?>
<!-- Created with Inkscape (http://www.inkscape.org/) -->

<svg
   xmlns:dc="http://purl.org/dc/elements/1.1/"
   xmlns:cc="http://creativecommons.org/ns#"
   xmlns:rdf="http://www.w3.org/1999/02/22-rdf-syntax-ns#"
   xmlns:svg="http://www.w3.org/2000/svg"
   xmlns="http://www.w3.org/2000/svg"
   xmlns:sodipodi="http://sodipodi.sourceforge.net/DTD/sodipodi-0.dtd"
   xmlns:inkscape="http://www.inkscape.org/namespaces/inkscape"
   width="548.29401"
   height="548.29401"
   viewBox="0 0 548.294 548.29402"
   id="svg2"
   version="1.1"
   inkscape:version="0.91 r13725"
   sodipodi:docname="set.svg">
  <defs
     id="defs4" />
  <sodipodi:namedview
     id="base"
     pagecolor="#ffffff"
     bordercolor="#666666"
     borderopacity="1.0"
     inkscape:pageopacity="0.0"
     inkscape:pageshadow="2"
     inkscape:zoom="0.90097656"
     inkscape:cx="247.83353"
     inkscape:cy="276.93045"
     inkscape:document-units="px"
     inkscape:current-layer="layer1"
     showgrid="false"
     units="px"
     fit-margin-top="0"
     fit-margin-left="0"
     fit-margin-right="0"
     fit-margin-bottom="0"
     inkscape:window-width="1440"
     inkscape:window-height="805"
     inkscape:window-x="0"
     inkscape:window-y="1"
     inkscape:window-maximized="1" />
  <metadata
     id="metadata7">
    <rdf:RDF>
      <cc:Work
         rdf:about="">
        <dc:format>image/svg+xml</dc:format>
        <dc:type
           rdf:resource="http://purl.org/dc/dcmitype/StillImage" />
        <dc:title></dc:title>
      </cc:Work>
    </rdf:RDF>
  </metadata>
  <g
     inkscape:label="Camada 1"
     inkscape:groupmode="layer"
     id="layer1"
     transform="translate(-137.62845,-482.97983)">
    <circle
       style="opacity:1;fill:#ffa700;fill-opacity:0.54509804;stroke:none;stroke-width:4;stroke-linecap:round;stroke-linejoin:round;stroke-miterlimit:4;stroke-dasharray:8, 8;stroke-dashoffset:0;stroke-opacity:1"
       id="path4140"
       cx="411.77545"
       cy="757.12683"
       r="274.147" />
    <circle
       r="199.78325"
       cy="817.12683"
       cx="411.77545"
       id="circle4142"
       style="opacity:1;fill:#ffa700;fill-opacity:0.54509804;stroke:none;stroke-width:4;stroke-linecap:round;stroke-linejoin:round;stroke-miterlimit:4;stroke-dasharray:8, 8;stroke-dashoffset:0;stroke-opacity:1" />
    <circle
       style="opacity:1;fill:#ffa700;fill-opacity:0.54509804;stroke:none;stroke-width:4;stroke-linecap:round;stroke-linejoin:round;stroke-miterlimit:4;stroke-dasharray:8, 8;stroke-dashoffset:0;stroke-opacity:1"
       id="circle4144"
       cx="411.77545"
       cy="867.12683"
       r="129.85912" />
    <circle
       r="75.473686"
       cy="909.12683"
       cx="411.77545"
       id="circle4148"
       style="opacity:1;fill:#ffa700;fill-opacity:1;stroke:none;stroke-width:4;stroke-linecap:round;stroke-linejoin:round;stroke-miterlimit:4;stroke-dasharray:8, 8;stroke-dashoffset:0;stroke-opacity:1" />
    <g
       style="font-style:normal;font-weight:normal;font-size:40px;line-height:125%;font-family:sans-serif;letter-spacing:0px;word-spacing:0px;fill:#ffffff;fill-opacity:1;stroke:none;stroke-width:1px;stroke-linecap:butt;stroke-linejoin:miter;stroke-opacity:1"
       id="text4150">
      <path
         d="m 398.48248,909.71277 -12.53906,0 0,11.60156 14.45313,0 0,2.03125 -16.77735,0 0,-28.4375 16.69922,0 0,2.05078 -14.375,0 0,10.72266 12.53906,0 0,2.03125 z"
         style="font-style:normal;font-variant:normal;font-weight:300;font-stretch:normal;font-family:'Roboto Mono';-inkscape-font-specification:'Roboto Mono Light';fill:#ffffff;fill-opacity:1"
         id="path4252" />
      <path
         d="m 423.01373,916.35339 q 0,-0.99609 -0.3125,-1.77734 -0.29297,-0.80078 -0.83984,-1.42578 -0.52734,-0.625 -1.23047,-1.09375 -0.70312,-0.48828 -1.50391,-0.85938 -0.80078,-0.37109 -1.64062,-0.66406 -0.83984,-0.29297 -1.62109,-0.54687 -0.9961,-0.3125 -2.03125,-0.6836 -1.01563,-0.39062 -1.99219,-0.8789 -0.95703,-0.50782 -1.81641,-1.13282 -0.83984,-0.64453 -1.48437,-1.44531 -0.625,-0.80078 -0.9961,-1.77734 -0.35156,-0.9961 -0.35156,-2.20703 0,-1.77735 0.78125,-3.14454 0.80078,-1.36718 2.07031,-2.30468 1.26953,-0.9375 2.85157,-1.40625 1.60156,-0.48828 3.22265,-0.48828 1.81641,0 3.45703,0.60546 1.64063,0.58594 2.8711,1.66016 1.25,1.07422 1.99218,2.61719 0.74219,1.52344 0.80079,3.39844 l -2.36329,0 q -0.15625,-1.38672 -0.68359,-2.51954 -0.52734,-1.15234 -1.40625,-1.97265 -0.87891,-0.82031 -2.07031,-1.26953 -1.17188,-0.46875 -2.59766,-0.46875 -1.1914,0 -2.36328,0.33203 -1.15234,0.3125 -2.08984,0.97656 -0.91797,0.64453 -1.50391,1.64063 -0.56641,0.97656 -0.56641,2.30468 0,1.42578 0.66407,2.42188 0.68359,0.99609 1.71875,1.67969 1.03515,0.68359 2.26562,1.15234 1.25,0.44922 2.36328,0.78125 1.03516,0.3125 2.08985,0.72266 1.05468,0.39062 2.03125,0.91796 0.99609,0.52735 1.85547,1.19141 0.85937,0.64453 1.48437,1.48438 0.64453,0.83984 0.99609,1.875 0.3711,1.01562 0.3711,2.26562 0,1.875 -0.82031,3.26172 -0.80079,1.38672 -2.08985,2.32422 -1.28906,0.91797 -2.92969,1.38672 -1.64062,0.44922 -3.32031,0.44922 -1.875,0 -3.63281,-0.54688 -1.75781,-0.54687 -3.14453,-1.60156 -1.36719,-1.05469 -2.22656,-2.59766 -0.85938,-1.5625 -0.91797,-3.55469 l 2.36328,0 q 0.17578,1.52344 0.80078,2.71485 0.64453,1.17187 1.64062,1.97265 0.9961,0.78125 2.30469,1.19141 1.3086,0.39063 2.8125,0.39063 1.25,0 2.44141,-0.3125 1.21094,-0.3125 2.16797,-0.95704 0.95703,-0.66406 1.54297,-1.66015 0.58593,-1.01563 0.58593,-2.42188 z"
         style="font-style:normal;font-variant:normal;font-weight:300;font-stretch:normal;font-family:'Roboto Mono';-inkscape-font-specification:'Roboto Mono Light';fill:#ffffff;fill-opacity:1"
         id="path4254" />
      <path
         d="m 432.81842,908.77527 1.38672,-13.86719 14.21875,0 0,2.26563 -12.22656,0 -0.97657,9.51171 q 1.05469,-0.72265 2.42188,-1.13281 1.36719,-0.42969 2.92969,-0.42969 1.93359,0 3.49609,0.6836 1.5625,0.66406 2.65625,1.89453 1.09375,1.21094 1.67969,2.91016 0.58594,1.67968 0.58594,3.67187 0,1.97266 -0.50782,3.69141 -0.50781,1.71875 -1.5625,3.00781 -1.03515,1.26953 -2.63672,2.01172 -1.58203,0.74219 -3.75,0.74219 -1.77734,0 -3.30078,-0.52735 -1.5039,-0.52734 -2.65625,-1.54297 -1.13281,-1.01562 -1.85547,-2.48047 -0.70312,-1.46484 -0.89843,-3.32031 l 2.26562,0 q 0.17578,1.38672 0.6836,2.48047 0.50781,1.09375 1.32812,1.85547 0.82031,0.76172 1.93359,1.17187 1.11329,0.39063 2.5,0.39063 1.5625,0 2.71485,-0.56641 1.15234,-0.5664 1.91406,-1.5625 0.76172,-1.01562 1.11328,-2.36328 0.3711,-1.36719 0.3711,-2.94922 0,-1.48437 -0.44922,-2.77343 -0.42969,-1.28907 -1.26953,-2.2461 -0.83985,-0.95703 -2.05079,-1.5039 -1.1914,-0.54688 -2.71484,-0.54688 -0.89844,0 -1.66016,0.11719 -0.74218,0.11719 -1.40625,0.39062 -0.64453,0.25391 -1.25,0.64453 -0.58593,0.3711 -1.17187,0.89844 l -1.85547,-0.52734 z"
         style="font-style:normal;font-variant:normal;font-weight:300;font-stretch:normal;font-family:'Roboto Mono';-inkscape-font-specification:'Roboto Mono Light';fill:#ffffff;fill-opacity:1"
         id="path4256" />
    </g>
    <g
       style="font-style:normal;font-weight:normal;font-size:40px;line-height:125%;font-family:sans-serif;letter-spacing:0px;word-spacing:0px;fill:#ffffff;fill-opacity:1;stroke:none;stroke-width:1px;stroke-linecap:butt;stroke-linejoin:miter;stroke-opacity:1"
       id="text4154">
      <path
         d="m 362.85748,793.71277 -12.53906,0 0,11.60156 14.45313,0 0,2.03125 -16.77735,0 0,-28.4375 16.69922,0 0,2.05078 -14.375,0 0,10.72266 12.53906,0 0,2.03125 z"
         style="font-style:normal;font-variant:normal;font-weight:300;font-stretch:normal;font-family:'Roboto Mono';-inkscape-font-specification:'Roboto Mono Light';fill:#ffffff;fill-opacity:1"
         id="path4239" />
      <path
         d="m 387.38873,800.35339 q 0,-0.99609 -0.3125,-1.77734 -0.29297,-0.80078 -0.83984,-1.42578 -0.52734,-0.625 -1.23047,-1.09375 -0.70312,-0.48828 -1.50391,-0.85938 -0.80078,-0.37109 -1.64062,-0.66406 -0.83984,-0.29297 -1.62109,-0.54687 -0.9961,-0.3125 -2.03125,-0.6836 -1.01563,-0.39062 -1.99219,-0.8789 -0.95703,-0.50782 -1.81641,-1.13282 -0.83984,-0.64453 -1.48437,-1.44531 -0.625,-0.80078 -0.9961,-1.77734 -0.35156,-0.9961 -0.35156,-2.20703 0,-1.77735 0.78125,-3.14454 0.80078,-1.36718 2.07031,-2.30468 1.26953,-0.9375 2.85157,-1.40625 1.60156,-0.48828 3.22265,-0.48828 1.81641,0 3.45703,0.60546 1.64063,0.58594 2.8711,1.66016 1.25,1.07422 1.99218,2.61719 0.74219,1.52344 0.80079,3.39844 l -2.36329,0 q -0.15625,-1.38672 -0.68359,-2.51954 -0.52734,-1.15234 -1.40625,-1.97265 -0.87891,-0.82031 -2.07031,-1.26953 -1.17188,-0.46875 -2.59766,-0.46875 -1.1914,0 -2.36328,0.33203 -1.15234,0.3125 -2.08984,0.97656 -0.91797,0.64453 -1.50391,1.64063 -0.56641,0.97656 -0.56641,2.30468 0,1.42578 0.66407,2.42188 0.68359,0.99609 1.71875,1.67969 1.03515,0.68359 2.26562,1.15234 1.25,0.44922 2.36328,0.78125 1.03516,0.3125 2.08985,0.72266 1.05468,0.39062 2.03125,0.91796 0.99609,0.52735 1.85547,1.19141 0.85937,0.64453 1.48437,1.48438 0.64453,0.83984 0.99609,1.875 0.3711,1.01562 0.3711,2.26562 0,1.875 -0.82031,3.26172 -0.80079,1.38672 -2.08985,2.32422 -1.28906,0.91797 -2.92969,1.38672 -1.64062,0.44922 -3.32031,0.44922 -1.875,0 -3.63281,-0.54688 -1.75781,-0.54687 -3.14453,-1.60156 -1.36719,-1.05469 -2.22656,-2.59766 -0.85938,-1.5625 -0.91797,-3.55469 l 2.36328,0 q 0.17578,1.52344 0.80078,2.71485 0.64453,1.17187 1.64062,1.97265 0.9961,0.78125 2.30469,1.19141 1.3086,0.39063 2.8125,0.39063 1.25,0 2.44141,-0.3125 1.21094,-0.3125 2.16797,-0.95704 0.95703,-0.66406 1.54297,-1.66015 0.58593,-1.01563 0.58593,-2.42188 z"
         style="font-style:normal;font-variant:normal;font-weight:300;font-stretch:normal;font-family:'Roboto Mono';-inkscape-font-specification:'Roboto Mono Light';fill:#ffffff;fill-opacity:1"
         id="path4241" />
      <path
         d="m 412.48639,807.34558 -17.83203,0 0,-1.79687 9.3164,-10.56641 q 1.03516,-1.17188 1.89454,-2.24609 0.8789,-1.07422 1.5039,-2.10938 0.64453,-1.05469 0.9961,-2.10937 0.35156,-1.05469 0.35156,-2.16797 0,-1.28907 -0.42969,-2.36328 -0.42969,-1.07422 -1.23047,-1.83594 -0.78125,-0.78125 -1.875,-1.21094 -1.09375,-0.42969 -2.4414,-0.42969 -1.50391,0 -2.67579,0.50782 -1.17187,0.50781 -1.99218,1.38671 -0.80078,0.87891 -1.25,2.08985 -0.42969,1.1914 -0.44922,2.61719 l -2.34375,0 q 0.0195,-1.75782 0.64453,-3.32032 0.625,-1.5625 1.75781,-2.73437 1.13281,-1.17188 2.71485,-1.85547 1.60156,-0.68359 3.59375,-0.68359 1.875,0 3.39843,0.5664 1.54297,0.54688 2.63672,1.58203 1.09375,1.01563 1.67969,2.46094 0.60547,1.42578 0.60547,3.16406 0,1.40625 -0.50781,2.73438 -0.48829,1.32812 -1.28907,2.59765 -0.78125,1.26954 -1.79687,2.46094 -0.9961,1.19141 -1.99219,2.32422 l -7.94922,8.96484 14.96094,0 0,1.97266 z"
         style="font-style:normal;font-variant:normal;font-weight:300;font-stretch:normal;font-family:'Roboto Mono';-inkscape-font-specification:'Roboto Mono Light';fill:#ffffff;fill-opacity:1"
         id="path4243" />
      <path
         d="m 437.09576,796.09558 q 0,2.38281 -0.52734,4.51172 -0.52734,2.10937 -1.62109,3.69141 -1.09375,1.58203 -2.77344,2.51953 -1.67969,0.91797 -4.00391,0.91797 -2.30468,0 -4.0039,-0.91797 -1.67969,-0.9375 -2.79297,-2.51953 -1.09375,-1.58204 -1.64063,-3.69141 -0.52734,-2.12891 -0.54687,-4.51172 l 0,-5.91797 q 0.0195,-2.38281 0.54687,-4.49219 0.52735,-2.1289 1.6211,-3.73046 1.11328,-1.60157 2.79297,-2.51954 1.67968,-0.9375 3.98437,-0.9375 2.32422,0 4.00391,0.9375 1.69922,0.91797 2.79297,2.51954 1.09375,1.58203 1.62109,3.71093 0.54687,2.12891 0.54687,4.51172 l 0,5.91797 z m -15.5664,0.35156 q 0,0.80078 0.0586,1.52344 l 12.83203,-11.62109 q -0.27343,-1.25 -0.76172,-2.32422 -0.48828,-1.07422 -1.26953,-1.85547 -0.76172,-0.78125 -1.8164,-1.23047 -1.05469,-0.44922 -2.44141,-0.44922 -1.81641,0 -3.08594,0.76172 -1.25,0.76172 -2.03125,2.05078 -0.78125,1.28906 -1.13281,2.96875 -0.35156,1.67969 -0.35156,3.51563 l 0,6.66015 z m 13.22265,-6.66015 q 0,-0.64453 -0.0586,-1.26953 l -12.77344,11.60156 q 0.29297,1.21094 0.80078,2.24609 0.50782,1.03516 1.26954,1.79688 0.76171,0.74218 1.79687,1.17187 1.03516,0.42969 2.38281,0.42969 1.81641,0 3.06641,-0.76172 1.26953,-0.78125 2.03125,-2.07031 0.78125,-1.28906 1.13281,-2.96875 0.35156,-1.67969 0.35156,-3.51563 l 0,-6.66015 z"
         style="font-style:normal;font-variant:normal;font-weight:300;font-stretch:normal;font-family:'Roboto Mono';-inkscape-font-specification:'Roboto Mono Light';fill:#ffffff;fill-opacity:1"
         id="path4245" />
      <path
         d="m 454.57623,807.34558 -2.34375,0 0,-25.48828 -7.87109,3.37891 0,-2.20704 9.88281,-4.12109 0.33203,0 0,28.4375 z"
         style="font-style:normal;font-variant:normal;font-weight:300;font-stretch:normal;font-family:'Roboto Mono';-inkscape-font-specification:'Roboto Mono Light';fill:#ffffff;fill-opacity:1"
         id="path4247" />
      <path
         d="m 480.92389,778.69324 0,2.1289 -0.35156,0 q -2.85157,0.0195 -4.90235,0.95703 -2.05078,0.9375 -3.39843,2.51954 -1.34766,1.5625 -2.05079,3.63281 -0.70312,2.07031 -0.83984,4.3164 0.54688,-0.78125 1.30859,-1.44531 0.76172,-0.66406 1.66016,-1.13281 0.91797,-0.46875 1.95313,-0.72266 1.03515,-0.27343 2.1289,-0.27343 2.05078,0 3.57422,0.80078 1.54297,0.78125 2.55859,2.08984 1.03516,1.28906 1.54297,2.98828 0.50782,1.67969 0.50782,3.47656 0,1.875 -0.54688,3.63282 -0.52734,1.73828 -1.60156,3.08593 -1.05469,1.34766 -2.63672,2.16797 -1.5625,0.82032 -3.63281,0.82032 -2.22657,0 -3.94532,-0.87891 -1.69921,-0.89844 -2.87109,-2.34375 -1.17187,-1.46484 -1.77734,-3.33984 -0.60547,-1.875 -0.625,-3.86719 l 0,-2.51953 q 0,-2.03125 0.3125,-4.00391 0.3125,-1.99219 0.97656,-3.76953 0.66406,-1.77734 1.71875,-3.30078 1.05469,-1.52344 2.55859,-2.61719 1.50391,-1.11328 3.4961,-1.73828 1.99218,-0.64453 4.53125,-0.66406 l 0.35156,0 z m -4.86328,11.99218 q -1.11328,0 -2.1875,0.35157 -1.05469,0.35156 -1.95313,0.97656 -0.89843,0.625 -1.58203,1.52344 -0.66406,0.8789 -0.99609,1.95312 l 0,1.85547 q 0,1.83594 0.50781,3.39844 0.50781,1.54297 1.40625,2.65625 0.91797,1.11328 2.16797,1.73828 1.26953,0.625 2.77344,0.60547 1.48437,0 2.61718,-0.64453 1.15235,-0.64453 1.91407,-1.69922 0.78125,-1.07422 1.17187,-2.44141 0.41016,-1.38672 0.41016,-2.85156 0,-1.46484 -0.41016,-2.79297 -0.39062,-1.34766 -1.1914,-2.36328 -0.78125,-1.03516 -1.95313,-1.64063 -1.15234,-0.625 -2.69531,-0.625 z"
         style="font-style:normal;font-variant:normal;font-weight:300;font-stretch:normal;font-family:'Roboto Mono';-inkscape-font-specification:'Roboto Mono Light';fill:#ffffff;fill-opacity:1"
         id="path4249" />
    </g>
    <g
       style="font-style:normal;font-weight:normal;font-size:40px;line-height:125%;font-family:sans-serif;letter-spacing:0px;word-spacing:0px;fill:#ffffff;fill-opacity:1;stroke:none;stroke-width:1px;stroke-linecap:butt;stroke-linejoin:miter;stroke-opacity:1"
       id="text4158">
      <path
         d="m 362.56451,685.71277 -12.53906,0 0,11.60156 14.45313,0 0,2.03125 -16.77735,0 0,-28.4375 16.69922,0 0,2.05078 -14.375,0 0,10.72266 12.53906,0 0,2.03125 z"
         style="font-style:normal;font-variant:normal;font-weight:300;font-stretch:normal;font-family:'Roboto Mono';-inkscape-font-specification:'Roboto Mono Light';fill:#ffffff;fill-opacity:1"
         id="path4226" />
      <path
         d="m 387.09576,692.35339 q 0,-0.99609 -0.3125,-1.77734 -0.29296,-0.80078 -0.83984,-1.42578 -0.52734,-0.625 -1.23047,-1.09375 -0.70312,-0.48828 -1.5039,-0.85938 -0.80079,-0.37109 -1.64063,-0.66406 -0.83984,-0.29297 -1.62109,-0.54687 -0.9961,-0.3125 -2.03125,-0.6836 -1.01563,-0.39062 -1.99219,-0.8789 -0.95703,-0.50782 -1.81641,-1.13282 -0.83984,-0.64453 -1.48437,-1.44531 -0.625,-0.80078 -0.9961,-1.77734 -0.35156,-0.9961 -0.35156,-2.20703 0,-1.77735 0.78125,-3.14454 0.80078,-1.36718 2.07031,-2.30468 1.26954,-0.9375 2.85157,-1.40625 1.60156,-0.48828 3.22265,-0.48828 1.81641,0 3.45703,0.60546 1.64063,0.58594 2.8711,1.66016 1.25,1.07422 1.99219,2.61719 0.74218,1.52344 0.80078,3.39844 l -2.36328,0 q -0.15625,-1.38672 -0.6836,-2.51954 -0.52734,-1.15234 -1.40625,-1.97265 -0.8789,-0.82031 -2.07031,-1.26953 -1.17188,-0.46875 -2.59766,-0.46875 -1.1914,0 -2.36328,0.33203 -1.15234,0.3125 -2.08984,0.97656 -0.91797,0.64453 -1.50391,1.64063 -0.5664,0.97656 -0.5664,2.30468 0,1.42578 0.66406,2.42188 0.68359,0.99609 1.71875,1.67969 1.03515,0.68359 2.26562,1.15234 1.25,0.44922 2.36328,0.78125 1.03516,0.3125 2.08985,0.72266 1.05469,0.39062 2.03125,0.91796 0.99609,0.52735 1.85547,1.19141 0.85937,0.64453 1.48437,1.48438 0.64453,0.83984 0.9961,1.875 0.37109,1.01562 0.37109,2.26562 0,1.875 -0.82031,3.26172 -0.80078,1.38672 -2.08985,2.32422 -1.28906,0.91797 -2.92968,1.38672 -1.64063,0.44922 -3.32032,0.44922 -1.875,0 -3.63281,-0.54688 -1.75781,-0.54687 -3.14453,-1.60156 -1.36719,-1.05469 -2.22656,-2.59766 -0.85938,-1.5625 -0.91797,-3.55469 l 2.36328,0 q 0.17578,1.52344 0.80078,2.71485 0.64453,1.17187 1.64063,1.97265 0.99609,0.78125 2.30468,1.19141 1.3086,0.39063 2.8125,0.39063 1.25,0 2.44141,-0.3125 1.21094,-0.3125 2.16797,-0.95704 0.95703,-0.66406 1.54297,-1.66015 0.58593,-1.01563 0.58593,-2.42188 z"
         style="font-style:normal;font-variant:normal;font-weight:300;font-stretch:normal;font-family:'Roboto Mono';-inkscape-font-specification:'Roboto Mono Light';fill:#ffffff;fill-opacity:1"
         id="path4228" />
      <path
         d="m 412.19342,699.34558 -17.83203,0 0,-1.79687 9.31641,-10.56641 q 1.03515,-1.17188 1.89453,-2.24609 0.8789,-1.07422 1.5039,-2.10938 0.64453,-1.05469 0.9961,-2.10937 0.35156,-1.05469 0.35156,-2.16797 0,-1.28907 -0.42969,-2.36328 -0.42969,-1.07422 -1.23047,-1.83594 -0.78125,-0.78125 -1.875,-1.21094 -1.09375,-0.42969 -2.4414,-0.42969 -1.50391,0 -2.67578,0.50782 -1.17188,0.50781 -1.99219,1.38671 -0.80078,0.87891 -1.25,2.08985 -0.42969,1.1914 -0.44922,2.61719 l -2.34375,0 q 0.0195,-1.75782 0.64453,-3.32032 0.625,-1.5625 1.75781,-2.73437 1.13282,-1.17188 2.71485,-1.85547 1.60156,-0.68359 3.59375,-0.68359 1.875,0 3.39843,0.5664 1.54297,0.54688 2.63672,1.58203 1.09375,1.01563 1.67969,2.46094 0.60547,1.42578 0.60547,3.16406 0,1.40625 -0.50781,2.73438 -0.48828,1.32812 -1.28907,2.59765 -0.78125,1.26954 -1.79687,2.46094 -0.99609,1.19141 -1.99219,2.32422 l -7.94922,8.96484 14.96094,0 0,1.97266 z"
         style="font-style:normal;font-variant:normal;font-weight:300;font-stretch:normal;font-family:'Roboto Mono';-inkscape-font-specification:'Roboto Mono Light';fill:#ffffff;fill-opacity:1"
         id="path4230" />
      <path
         d="m 436.8028,688.09558 q 0,2.38281 -0.52735,4.51172 -0.52734,2.10937 -1.62109,3.69141 -1.09375,1.58203 -2.77344,2.51953 -1.67969,0.91797 -4.00391,0.91797 -2.30468,0 -4.0039,-0.91797 -1.67969,-0.9375 -2.79297,-2.51953 -1.09375,-1.58204 -1.64063,-3.69141 -0.52734,-2.12891 -0.54687,-4.51172 l 0,-5.91797 q 0.0195,-2.38281 0.54687,-4.49219 0.52735,-2.1289 1.6211,-3.73046 1.11328,-1.60157 2.79297,-2.51954 1.67968,-0.9375 3.98437,-0.9375 2.32422,0 4.00391,0.9375 1.69922,0.91797 2.79297,2.51954 1.09375,1.58203 1.62109,3.71093 0.54688,2.12891 0.54688,4.51172 l 0,5.91797 z m -15.56641,0.35156 q 0,0.80078 0.0586,1.52344 l 12.83203,-11.62109 q -0.27343,-1.25 -0.76171,-2.32422 -0.48829,-1.07422 -1.26954,-1.85547 -0.76171,-0.78125 -1.8164,-1.23047 -1.05469,-0.44922 -2.44141,-0.44922 -1.8164,0 -3.08594,0.76172 -1.25,0.76172 -2.03125,2.05078 -0.78125,1.28906 -1.13281,2.96875 -0.35156,1.67969 -0.35156,3.51563 l 0,6.66015 z m 13.22266,-6.66015 q 0,-0.64453 -0.0586,-1.26953 l -12.77344,11.60156 q 0.29297,1.21094 0.80079,2.24609 0.50781,1.03516 1.26953,1.79688 0.76172,0.74218 1.79687,1.17187 1.03516,0.42969 2.38281,0.42969 1.81641,0 3.06641,-0.76172 1.26953,-0.78125 2.03125,-2.07031 0.78125,-1.28906 1.13281,-2.96875 0.35157,-1.67969 0.35157,-3.51563 l 0,-6.66015 z"
         style="font-style:normal;font-variant:normal;font-weight:300;font-stretch:normal;font-family:'Roboto Mono';-inkscape-font-specification:'Roboto Mono Light';fill:#ffffff;fill-opacity:1"
         id="path4232" />
      <path
         d="m 454.28326,699.34558 -2.34375,0 0,-25.48828 -7.87109,3.37891 0,-2.20704 9.88281,-4.12109 0.33203,0 0,28.4375 z"
         style="font-style:normal;font-variant:normal;font-weight:300;font-stretch:normal;font-family:'Roboto Mono';-inkscape-font-specification:'Roboto Mono Light';fill:#ffffff;fill-opacity:1"
         id="path4234" />
      <path
         d="m 484.90826,672.25574 -12.14843,27.08984 -2.44141,0 12.07031,-26.34766 -16.17187,0 0,-2.08984 18.6914,0 0,1.34766 z"
         style="font-style:normal;font-variant:normal;font-weight:300;font-stretch:normal;font-family:'Roboto Mono';-inkscape-font-specification:'Roboto Mono Light';fill:#ffffff;fill-opacity:1"
         id="path4236" />
    </g>
    <g
       style="font-style:normal;font-weight:normal;font-size:40px;line-height:125%;font-family:sans-serif;letter-spacing:0px;word-spacing:0px;fill:#ffffff;fill-opacity:1;stroke:none;stroke-width:1px;stroke-linecap:butt;stroke-linejoin:miter;stroke-opacity:1"
       id="text4162">
      <path
         d="m 319.41022,542.95886 -9.0625,0 0,26.38672 -2.28516,0 0.0195,-26.38672 -9.08203,0 0,-2.05078 20.41016,0 0,2.05078 z"
         style="font-style:normal;font-variant:normal;font-weight:300;font-stretch:normal;font-family:'Roboto Mono';-inkscape-font-specification:'Roboto Mono Light';fill:#ffffff;fill-opacity:1"
         id="path4205" />
      <path
         d="m 332.86725,565.04871 0.42969,1.15234 7.63671,-17.98828 2.65625,0 -10.91796,24.51172 q -0.42969,0.95703 -1.01563,1.875 -0.58594,0.91797 -1.38672,1.64062 -0.80078,0.74219 -1.85547,1.19141 -1.03515,0.44922 -2.38281,0.44922 -0.46875,0 -1.03516,-0.0977 -0.5664,-0.0781 -0.95703,-0.17578 l 0.27344,-1.95313 q 0.33203,0.0391 0.82031,0.0781 0.50782,0.0586 0.83985,0.0586 0.89843,0 1.64062,-0.35156 0.74219,-0.35156 1.3086,-0.91797 0.58593,-0.54687 1.01562,-1.25 0.44922,-0.68359 0.74219,-1.34765 l 1.44531,-3.125 -9.49219,-20.58594 2.63672,0 7.59766,16.83594 z"
         style="font-style:normal;font-variant:normal;font-weight:300;font-stretch:normal;font-family:'Roboto Mono';-inkscape-font-specification:'Roboto Mono Light';fill:#ffffff;fill-opacity:1"
         id="path4207" />
      <path
         d="m 365.99225,558.99402 q 0,2.05078 -0.50781,4.0039 -0.48829,1.9336 -1.52344,3.4375 -1.01563,1.48438 -2.57813,2.40235 -1.5625,0.89844 -3.71093,0.89844 -1.97266,0 -3.61329,-0.76172 -1.64062,-0.76172 -2.7539,-2.20703 l 0,10.70312 -2.34375,0 0,-29.25781 2.1875,0 0.0976,2.89062 q 1.11329,-1.5625 2.73438,-2.42187 1.62109,-0.85938 3.65234,-0.85938 2.16797,0 3.75,0.89844 1.58203,0.87891 2.59766,2.38281 1.01562,1.48438 1.50391,3.4375 0.50781,1.9336 0.50781,4.04297 l 0,0.41016 z m -2.34375,-0.41016 q 0,-1.58203 -0.35156,-3.14453 -0.35157,-1.5625 -1.13282,-2.79297 -0.78125,-1.25 -2.03125,-2.01172 -1.23047,-0.78125 -3.02734,-0.78125 -1.01563,0 -1.91406,0.29297 -0.87891,0.27344 -1.6211,0.80078 -0.72265,0.50782 -1.30859,1.23047 -0.56641,0.70313 -0.95703,1.5625 l 0,10.46875 q 0.82031,1.64063 2.34375,2.59766 1.52344,0.95703 3.49609,0.95703 1.77735,0 3.00781,-0.78125 1.25,-0.78125 2.01172,-2.01172 0.78125,-1.25 1.13282,-2.8125 0.35156,-1.58203 0.35156,-3.16406 l 0,-0.41016 z"
         style="font-style:normal;font-variant:normal;font-weight:300;font-stretch:normal;font-family:'Roboto Mono';-inkscape-font-specification:'Roboto Mono Light';fill:#ffffff;fill-opacity:1"
         id="path4209" />
      <path
         d="m 381.91022,569.73621 q -2.20703,0 -4.02344,-0.82032 -1.81641,-0.82031 -3.125,-2.22656 -1.28906,-1.40625 -2.01172,-3.28125 -0.70312,-1.89453 -0.72266,-4.02344 l 0,-0.83984 q 0.0195,-2.26563 0.74219,-4.21875 0.74219,-1.95313 2.01172,-3.39844 1.26953,-1.44531 2.98828,-2.26562 1.71875,-0.83985 3.69141,-0.83985 2.10937,0 3.73047,0.76172 1.62109,0.76172 2.71484,2.08985 1.11328,1.30859 1.67969,3.0664 0.58594,1.75781 0.60547,3.76953 l 0,1.42578 -15.82032,0 0,0.44922 q 0.0195,1.66016 0.56641,3.1836 0.54688,1.5039 1.54297,2.65625 0.99609,1.15234 2.40234,1.85547 1.40625,0.68359 3.125,0.68359 1.95313,0.0195 3.53516,-0.72266 1.58203,-0.74218 2.69531,-2.14843 l 1.48438,1.11328 q -0.58594,0.82031 -1.38672,1.52343 -0.80078,0.6836 -1.79688,1.17188 -0.97656,0.48828 -2.14843,0.76172 -1.17188,0.27344 -2.48047,0.27344 z M 381.461,549.81433 q -1.42578,0 -2.61719,0.54688 -1.19141,0.52734 -2.08984,1.48437 -0.89844,0.95703 -1.48438,2.26563 -0.58594,1.28906 -0.80078,2.83203 l 13.37891,0 0,-0.25391 q -0.0391,-1.30859 -0.48828,-2.53906 -0.42969,-1.25 -1.25,-2.20703 -0.80079,-0.95703 -1.97266,-1.54297 -1.17188,-0.58594 -2.67578,-0.58594 z"
         style="font-style:normal;font-variant:normal;font-weight:300;font-stretch:normal;font-family:'Roboto Mono';-inkscape-font-specification:'Roboto Mono Light';fill:#ffffff;fill-opacity:1"
         id="path4211" />
      <path
         d="m 412.43756,562.35339 q 0,-0.99609 -0.3125,-1.77734 -0.29297,-0.80078 -0.83984,-1.42578 -0.52735,-0.625 -1.23047,-1.09375 -0.70313,-0.48828 -1.50391,-0.85938 -0.80078,-0.37109 -1.64062,-0.66406 -0.83985,-0.29297 -1.6211,-0.54687 -0.99609,-0.3125 -2.03125,-0.6836 -1.01562,-0.39062 -1.99218,-0.8789 -0.95704,-0.50782 -1.81641,-1.13282 -0.83984,-0.64453 -1.48438,-1.44531 -0.625,-0.80078 -0.99609,-1.77734 -0.35156,-0.9961 -0.35156,-2.20703 0,-1.77735 0.78125,-3.14454 0.80078,-1.36718 2.07031,-2.30468 1.26953,-0.9375 2.85156,-1.40625 1.60157,-0.48828 3.22266,-0.48828 1.81641,0 3.45703,0.60546 1.64063,0.58594 2.87109,1.66016 1.25,1.07422 1.99219,2.61719 0.74219,1.52344 0.80078,3.39844 l -2.36328,0 q -0.15625,-1.38672 -0.68359,-2.51954 -0.52735,-1.15234 -1.40625,-1.97265 -0.87891,-0.82031 -2.07031,-1.26953 -1.17188,-0.46875 -2.59766,-0.46875 -1.19141,0 -2.36328,0.33203 -1.15235,0.3125 -2.08985,0.97656 -0.91796,0.64453 -1.5039,1.64063 -0.56641,0.97656 -0.56641,2.30468 0,1.42578 0.66406,2.42188 0.6836,0.99609 1.71875,1.67969 1.03516,0.68359 2.26563,1.15234 1.25,0.44922 2.36328,0.78125 1.03516,0.3125 2.08984,0.72266 1.05469,0.39062 2.03125,0.91796 0.9961,0.52735 1.85547,1.19141 0.85938,0.64453 1.48438,1.48438 0.64453,0.83984 0.99609,1.875 0.3711,1.01562 0.3711,2.26562 0,1.875 -0.82032,3.26172 -0.80078,1.38672 -2.08984,2.32422 -1.28906,0.91797 -2.92969,1.38672 -1.64062,0.44922 -3.32031,0.44922 -1.875,0 -3.63281,-0.54688 -1.75782,-0.54687 -3.14453,-1.60156 -1.36719,-1.05469 -2.22657,-2.59766 -0.85937,-1.5625 -0.91797,-3.55469 l 2.36329,0 q 0.17578,1.52344 0.80078,2.71485 0.64453,1.17187 1.64062,1.97265 0.9961,0.78125 2.30469,1.19141 1.30859,0.39063 2.8125,0.39063 1.25,0 2.44141,-0.3125 1.21093,-0.3125 2.16796,-0.95704 0.95704,-0.66406 1.54297,-1.66015 0.58594,-1.01563 0.58594,-2.42188 z"
         style="font-style:normal;font-variant:normal;font-weight:300;font-stretch:normal;font-family:'Roboto Mono';-inkscape-font-specification:'Roboto Mono Light';fill:#ffffff;fill-opacity:1"
         id="path4213" />
      <path
         d="m 429.50787,567.76355 q 1.17188,0 2.22657,-0.33203 1.07421,-0.35156 1.89453,-0.9961 0.82031,-0.64453 1.32812,-1.54296 0.52735,-0.91797 0.60547,-2.07032 l 2.24609,0 q -0.0781,1.50391 -0.78125,2.77344 -0.70312,1.26953 -1.83593,2.1875 -1.13282,0.91797 -2.59766,1.44531 -1.46484,0.50782 -3.08594,0.50782 -2.32422,0 -4.04297,-0.87891 -1.71875,-0.87891 -2.87109,-2.34375 -1.13281,-1.46484 -1.71875,-3.35938 -0.56641,-1.91406 -0.56641,-3.96484 l 0,-0.82031 q 0,-2.05078 0.56641,-3.94531 0.58594,-1.91407 1.71875,-3.37891 1.15234,-1.46484 2.87109,-2.34375 1.71875,-0.87891 4.02344,-0.87891 1.75781,0 3.24219,0.56641 1.50391,0.54687 2.59766,1.5625 1.11328,0.99609 1.75781,2.38281 0.64453,1.36719 0.72265,3.00781 l -2.24609,0 q -0.0586,-1.1914 -0.54687,-2.20703 -0.48829,-1.01562 -1.28907,-1.75781 -0.80078,-0.74219 -1.89453,-1.15234 -1.07422,-0.41016 -2.34375,-0.41016 -1.83594,0 -3.14453,0.74219 -1.28906,0.74219 -2.10937,1.95312 -0.82032,1.21094 -1.21094,2.75391 -0.3711,1.52344 -0.3711,3.10547 l 0,0.82031 q 0,1.60156 0.3711,3.14453 0.39062,1.54297 1.21094,2.75391 0.82031,1.1914 2.10937,1.93359 1.30859,0.74219 3.16406,0.74219 z"
         style="font-style:normal;font-variant:normal;font-weight:300;font-stretch:normal;font-family:'Roboto Mono';-inkscape-font-specification:'Roboto Mono Light';fill:#ffffff;fill-opacity:1"
         id="path4215" />
      <path
         d="m 458.98053,547.82214 q 0.87891,0 1.75781,0.11719 0.87891,0.0977 1.46485,0.29297 l -0.29297,2.24609 q -0.82032,-0.17578 -1.64063,-0.27343 -0.82031,-0.0977 -1.67969,-0.0977 -2.96875,0 -5.03906,1.40625 -2.07031,1.40625 -2.91015,4.31641 l 0.0195,13.51562 -2.42188,0 0,-21.13281 2.2461,0 0.15625,3.67187 0,0.42969 q 1.28906,-2.08984 3.41796,-3.28125 2.12891,-1.21094 4.92188,-1.21094 z"
         style="font-style:normal;font-variant:normal;font-weight:300;font-stretch:normal;font-family:'Roboto Mono';-inkscape-font-specification:'Roboto Mono Light';fill:#ffffff;fill-opacity:1"
         id="path4217" />
      <path
         d="m 469.60553,548.21277 9.80469,0 0,19.0625 7.1875,0 0,2.07031 -16.99219,0 0,-2.07031 7.46094,0 0,-16.97266 -7.46094,0 0,-2.08984 z m 6.77734,-5.78125 q 0,-0.72266 0.41016,-1.25 0.41016,-0.52735 1.36719,-0.52735 0.9375,0 1.34765,0.52735 0.42969,0.52734 0.42969,1.25 0,0.68359 -0.42969,1.21094 -0.41015,0.50781 -1.34765,0.50781 -0.95703,0 -1.36719,-0.50781 -0.41016,-0.52735 -0.41016,-1.21094 z"
         style="font-style:normal;font-variant:normal;font-weight:300;font-stretch:normal;font-family:'Roboto Mono';-inkscape-font-specification:'Roboto Mono Light';fill:#ffffff;fill-opacity:1"
         id="path4219" />
      <path
         d="m 510.211,558.99402 q 0,2.05078 -0.50781,4.0039 -0.48829,1.9336 -1.52344,3.4375 -1.01563,1.48438 -2.57813,2.40235 -1.5625,0.89844 -3.71093,0.89844 -1.97266,0 -3.61329,-0.76172 -1.64062,-0.76172 -2.7539,-2.20703 l 0,10.70312 -2.34375,0 0,-29.25781 2.1875,0 0.0976,2.89062 q 1.11329,-1.5625 2.73438,-2.42187 1.62109,-0.85938 3.65234,-0.85938 2.16797,0 3.75,0.89844 1.58203,0.87891 2.59766,2.38281 1.01562,1.48438 1.50391,3.4375 0.50781,1.9336 0.50781,4.04297 l 0,0.41016 z m -2.34375,-0.41016 q 0,-1.58203 -0.35156,-3.14453 -0.35157,-1.5625 -1.13282,-2.79297 -0.78125,-1.25 -2.03125,-2.01172 -1.23047,-0.78125 -3.02734,-0.78125 -1.01563,0 -1.91406,0.29297 -0.87891,0.27344 -1.6211,0.80078 -0.72265,0.50782 -1.30859,1.23047 -0.56641,0.70313 -0.95703,1.5625 l 0,10.46875 q 0.82031,1.64063 2.34375,2.59766 1.52344,0.95703 3.49609,0.95703 1.77735,0 3.00781,-0.78125 1.25,-0.78125 2.01172,-2.01172 0.78125,-1.25 1.13282,-2.8125 0.35156,-1.58203 0.35156,-3.16406 l 0,-0.41016 z"
         style="font-style:normal;font-variant:normal;font-weight:300;font-stretch:normal;font-family:'Roboto Mono';-inkscape-font-specification:'Roboto Mono Light';fill:#ffffff;fill-opacity:1"
         id="path4221" />
      <path
         d="m 524.8985,542.80261 0,5.41016 7.83203,0 0,1.91406 -7.83203,0 0,13.30078 q 0.0195,1.23047 0.37109,2.05078 0.3711,0.80078 0.97656,1.3086 0.625,0.48828 1.44532,0.70312 0.83984,0.21485 1.8164,0.21485 0.97657,0 1.99219,-0.13672 1.03516,-0.13672 1.75781,-0.27344 l 0.35157,1.77734 q -0.83985,0.33203 -2.05079,0.48828 -1.21093,0.17579 -2.46093,0.17579 -1.40625,0 -2.59766,-0.35157 -1.19141,-0.33203 -2.07031,-1.07422 -0.87891,-0.76171 -1.38672,-1.95312 -0.50781,-1.21094 -0.52734,-2.94922 l 0,-13.28125 -5.87891,0 0,-1.91406 5.87891,0 0,-5.41016 2.38281,0 z"
         style="font-style:normal;font-variant:normal;font-weight:300;font-stretch:normal;font-family:'Roboto Mono';-inkscape-font-specification:'Roboto Mono Light';fill:#ffffff;fill-opacity:1"
         id="path4223" />
    </g>
  </g>
</svg>
